<svg xmlns="http://www.w3.org/2000/svg" xmlns:xlink="http://www.w3.org/1999/xlink" viewBox="0 0 626.56 582.76"><defs><style>.cls-1{fill:url(#linear-gradient);}.cls-2{fill:url(#linear-gradient-2);}.cls-3{fill:url(#linear-gradient-3);}.cls-4{fill:url(#linear-gradient-4);}.cls-5{fill:url(#linear-gradient-5);}.cls-6{fill:url(#linear-gradient-6);}.cls-7{fill:url(#linear-gradient-7);}.cls-8{fill:url(#linear-gradient-8);}.cls-9{fill:url(#linear-gradient-9);}.cls-10{fill:url(#linear-gradient-10);}.cls-11{fill:url(#linear-gradient-11);}.cls-12{fill:url(#linear-gradient-12);}.cls-13{fill:url(#linear-gradient-13);}.cls-14{fill:url(#linear-gradient-14);}.cls-15{fill:url(#linear-gradient-15);}.cls-16{fill:url(#linear-gradient-16);}.cls-17{fill:url(#linear-gradient-17);}.cls-18{fill:url(#linear-gradient-18);}.cls-19{fill:url(#linear-gradient-19);}.cls-20{fill:url(#linear-gradient-20);}.cls-21{fill:url(#linear-gradient-21);}.cls-22{fill:url(#linear-gradient-22);}.cls-23{fill:url(#linear-gradient-23);}.cls-24{fill:url(#linear-gradient-24);}.cls-25{fill:url(#linear-gradient-25);}.cls-26{fill:url(#linear-gradient-26);}.cls-27{fill:#a30000;}.cls-28{fill:url(#linear-gradient-27);}</style><linearGradient id="linear-gradient" x1="57.25" y1="291.4" x2="567.61" y2="291.4" gradientUnits="userSpaceOnUse"><stop offset="0" stop-color="#a30000"/><stop offset="0.5" stop-color="#c05b5b"/><stop offset="1" stop-color="#a30000"/></linearGradient><linearGradient id="linear-gradient-2" x1="2.1" y1="291.38" x2="622.75" y2="291.38" gradientUnits="userSpaceOnUse"><stop offset="0" stop-color="#fff"/><stop offset="0.5" stop-color="#484846"/><stop offset="1" stop-color="#fff"/></linearGradient><linearGradient id="linear-gradient-3" x1="206.25" y1="341.69" x2="206.25" y2="313.61" gradientUnits="userSpaceOnUse"><stop offset="0" stop-color="#fff"/><stop offset="1" stop-color="#6b6b69"/></linearGradient><linearGradient id="linear-gradient-4" x1="262.32" y1="342.49" x2="262.32" y2="313.61" xlink:href="#linear-gradient-3"/><linearGradient id="linear-gradient-5" x1="317.62" y1="341.69" x2="317.62" y2="313.61" xlink:href="#linear-gradient-3"/><linearGradient id="linear-gradient-6" x1="372.88" y1="342.56" x2="372.88" y2="313.61" xlink:href="#linear-gradient-3"/><linearGradient id="linear-gradient-7" x1="434.91" y1="342.49" x2="434.91" y2="313.61" xlink:href="#linear-gradient-3"/><linearGradient id="linear-gradient-8" x1="492.49" y1="341.69" x2="492.49" y2="313.61" xlink:href="#linear-gradient-3"/><linearGradient id="linear-gradient-9" x1="551.04" y1="341.69" x2="551.04" y2="313.61" xlink:href="#linear-gradient-3"/><linearGradient id="linear-gradient-10" x1="603.1" y1="341.69" x2="603.1" y2="313.61" xlink:href="#linear-gradient-3"/><linearGradient id="linear-gradient-11" x1="206.32" y1="313.62" x2="206.32" y2="285.55" xlink:href="#linear-gradient-3"/><linearGradient id="linear-gradient-12" x1="262.3" y1="313.62" x2="262.3" y2="285.55" xlink:href="#linear-gradient-3"/><linearGradient id="linear-gradient-13" x1="317.57" y1="313.62" x2="317.57" y2="285.55" xlink:href="#linear-gradient-3"/><linearGradient id="linear-gradient-14" x1="372.86" y1="313.62" x2="372.86" y2="284.67" xlink:href="#linear-gradient-3"/><linearGradient id="linear-gradient-15" x1="435.06" y1="313.62" x2="435.06" y2="284.67" xlink:href="#linear-gradient-3"/><linearGradient id="linear-gradient-16" x1="492.57" y1="313.62" x2="492.57" y2="285.55" xlink:href="#linear-gradient-3"/><linearGradient id="linear-gradient-17" x1="550.32" y1="313.62" x2="550.32" y2="285.55" xlink:href="#linear-gradient-3"/><linearGradient id="linear-gradient-18" x1="602.93" y1="313.62" x2="602.93" y2="285.55" xlink:href="#linear-gradient-3"/><linearGradient id="linear-gradient-19" x1="24.17" y1="314.09" x2="24.17" y2="341.76" gradientUnits="userSpaceOnUse"><stop offset="0" stop-color="#a30000"/><stop offset="1" stop-color="#c05b5b"/></linearGradient><linearGradient id="linear-gradient-20" x1="73.74" y1="314.09" x2="73.74" y2="342.56" xlink:href="#linear-gradient-19"/><linearGradient id="linear-gradient-21" x1="136.3" y1="314.09" x2="136.3" y2="341.76" xlink:href="#linear-gradient-19"/><linearGradient id="linear-gradient-22" x1="23.45" y1="285.51" x2="23.45" y2="313.99" xlink:href="#linear-gradient-19"/><linearGradient id="linear-gradient-23" x1="90.86" y1="285.51" x2="90.86" y2="313.99" xlink:href="#linear-gradient-19"/><linearGradient id="linear-gradient-24" x1="136.3" y1="285.51" x2="136.3" y2="313.99" xlink:href="#linear-gradient-19"/><linearGradient id="linear-gradient-25" x1="154.74" y1="201.43" x2="470.97" y2="517.67" xlink:href="#linear-gradient-2"/><linearGradient id="linear-gradient-26" x1="155.3" y1="108.99" x2="471.53" y2="425.23" xlink:href="#linear-gradient-2"/><linearGradient id="linear-gradient-27" x1="0.83" y1="222.73" x2="626.56" y2="222.73" gradientUnits="userSpaceOnUse"><stop offset="0" stop-color="#fff"/><stop offset="0.5" stop-color="#6c6c6b"/><stop offset="1" stop-color="#fff"/></linearGradient></defs><g id="Layer_2" data-name="Layer 2"><g id="Layer_1-2" data-name="Layer 1"><path class="cls-1" d="M567.56,86.35S479.07,51.88,312.43,51.79C145.79,51.88,57.31,86.35,57.31,86.35s-1.58,52.91,12.22,123.21c6.2-2.45,13.18-5.1,20.16-7.69C80,144.61,81.22,103.1,81.22,103.1s80.2-31.65,231.21-31.73c151,.08,231.22,31.73,231.22,31.73s1.47,50.09-11.66,116.12c6.21.56,13.2,1.39,20.82,2.6C569.32,145.51,567.56,86.35,567.56,86.35ZM312.93,511.41h-1c-74.65-27.62-125.19-77.54-159.38-133.21H131.33C169.08,441.92,226,499.64,311.88,531H313c85.86-31.36,142.8-89.08,180.56-152.8H472.31C438.11,433.87,387.58,483.79,312.93,511.41Z"/><path class="cls-2" d="M622.69,42S515.08.1,312.43,0C109.78.1,2.17,42,2.17,42s-2.44,81.7,22.17,183.27c8.88-1.56,18.15-3.72,24.26-6.54C29.23,131.1,31.25,62.4,31.25,62.4s97.53-38.5,281.18-38.59C496.09,23.9,593.61,62.4,593.61,62.4s2.13,72.52-19,163.6c7.68,1.74,15.76,3.85,24.14,6.42C625.24,127.56,622.69,42,622.69,42ZM313,558.94h-1.2C212.74,522.27,148.59,453.32,107.08,378.2H81.6C127.23,463,199,541.58,311.76,582.76h1.34C425.87,541.58,497.63,463,543.26,378.2H517.78C476.27,453.32,412.12,522.27,313,558.94Z"/><path class="cls-3" d="M224.54,313.61h-12l1.53,4h-16l1.57-4H188.13l-11.55,28.08h12.11l5.77-14.76h23.17l5.7,14.76h12.6Z"/><path class="cls-4" d="M275.54,313.61v3.77q0,6.5-3.56,10.43a12.32,12.32,0,0,1-9.58,3.93,12.57,12.57,0,0,1-9.67-3.93q-3.66-3.93-3.65-10.43v-3.77H237.45v3.77a29.18,29.18,0,0,0,1.77,10.43,22.51,22.51,0,0,0,5,7.9,22,22,0,0,0,7.83,5,30.65,30.65,0,0,0,20.53,0,21.41,21.41,0,0,0,12.87-13,29.23,29.23,0,0,0,1.77-10.39v-3.77Z"/><path class="cls-5" d="M311.8,313.61v28.08h11.63V313.61Z"/><path class="cls-6" d="M390.64,313.61a18.86,18.86,0,0,1-1.37,7.22,17.71,17.71,0,0,1-3.72,5.81,17,17,0,0,1-5.66,3.85,17.72,17.72,0,0,1-7.05,1.41,17.4,17.4,0,0,1-7-1.41,17,17,0,0,1-5.61-3.85,17.6,17.6,0,0,1-3.74-5.81,19.24,19.24,0,0,1-1.36-7.22H343.16A27.88,27.88,0,0,0,345.49,325a28.8,28.8,0,0,0,6.29,9.22,29.37,29.37,0,0,0,9.42,6.14,31.52,31.52,0,0,0,23.34,0A28.62,28.62,0,0,0,400.27,325a28.21,28.21,0,0,0,2.32-11.35Z"/><path class="cls-7" d="M453.76,324.6a20.93,20.93,0,0,1-6.82,5.29,18.84,18.84,0,0,1-8.25,1.85,18.53,18.53,0,0,1-7.26-1.4,18.2,18.2,0,0,1-5.78-3.82,17.57,17.57,0,0,1-3.85-5.73,18.21,18.21,0,0,1-1.41-7.18H408.44A28.27,28.27,0,0,0,410.73,325a27.81,27.81,0,0,0,6.3,9.14,29.86,29.86,0,0,0,9.5,6.1,31.31,31.31,0,0,0,24.62-.56,28.54,28.54,0,0,0,10.23-7.55Z"/><path class="cls-8" d="M510.79,313.61h-12l1.53,4h-16l1.57-4H474.37l-11.55,28.08h12.11l5.78-14.76h23.18l5.69,14.76h12.59Z"/><path class="cls-9" d="M562.76,318.58a17.7,17.7,0,0,0,7-5H526.9v28.08h11.64V320.18h12.67l11,21.51h13Z"/><path class="cls-10" d="M593,331.57V318.26h20.78v-4.65H581.36v28.08h43.47V331.57Z"/><path class="cls-11" d="M213.14,285.55H199.66l-11.54,28.07h11.51l6.53-16.69,6.4,16.69h12Z"/><path class="cls-12" d="M275.54,285.55v28.07h11.62V285.55Zm-38.1,0v28.07h11.63V285.55Z"/><path class="cls-13" d="M292.86,285.55v10.26h18.93v17.81h11.63V295.81h18.85V285.55Z"/><path class="cls-14" d="M400.25,302.27a28.5,28.5,0,0,0-15.71-15.36,31.52,31.52,0,0,0-23.34,0,28.48,28.48,0,0,0-15.72,15.36,28.08,28.08,0,0,0-2.34,11.34h12a18.94,18.94,0,0,1,1.36-7.25,18.15,18.15,0,0,1,3.73-5.77,17.06,17.06,0,0,1,5.61-3.85,17.52,17.52,0,0,1,7-1.41,17.77,17.77,0,0,1,7.06,1.41,16.92,16.92,0,0,1,5.65,3.85,18.15,18.15,0,0,1,3.73,5.77,18.94,18.94,0,0,1,1.36,7.25h11.95A27.9,27.9,0,0,0,400.25,302.27Z"/><path class="cls-15" d="M451.42,287.51a31.51,31.51,0,0,0-13.07-2.84,30.69,30.69,0,0,0-11.75,2.24,29.56,29.56,0,0,0-9.5,6.09,28.47,28.47,0,0,0-8.66,20.61h11.94a19,19,0,0,1,1.37-7.25,17.75,17.75,0,0,1,3.77-5.77,17.26,17.26,0,0,1,5.73-3.85,18,18,0,0,1,7.1-1.41,19.07,19.07,0,0,1,8.5,2,20.49,20.49,0,0,1,7,5.65l7.86-7.78A27.62,27.62,0,0,0,451.42,287.51Z"/><path class="cls-16" d="M499.38,285.55H485.91l-11.54,28.07h11.51l6.53-16.69,6.4,16.69h12Z"/><path class="cls-17" d="M572.3,295.9a16.38,16.38,0,0,0-4-5.51,18.5,18.5,0,0,0-6.14-3.56,23,23,0,0,0-7.81-1.28H526.9v28.07h42.86a14.16,14.16,0,0,0,1-1.21,15.76,15.76,0,0,0,3-9.46A17.12,17.12,0,0,0,572.3,295.9Zm-12.72,12.67a9.19,9.19,0,0,1-6.3,2.08H538.53V295.57h14.75a9.24,9.24,0,0,1,6.3,2.08,7.5,7.5,0,0,1,0,10.92Z"/><path class="cls-18" d="M624.5,295.65v-10.1H581.35v28.07h32.41v-5.14H593V295.65Z"/><path class="cls-19" d="M35.89,318.66a17.85,17.85,0,0,0,6.66-4.57H0v27.67H11.66v-21.5H24.33l11,21.5h13Z"/><path class="cls-20" d="M85.05,314.09v5.54a12.78,12.78,0,0,1-3.17,9,10.77,10.77,0,0,1-8.31,3.44,11,11,0,0,1-7.3-2.48A16.91,16.91,0,0,1,61.54,322L50.8,326.12a22.94,22.94,0,0,0,8.42,12.2,23.91,23.91,0,0,0,14.28,4.24A27,27,0,0,0,83,341a20.62,20.62,0,0,0,7.3-4.57A21,21,0,0,0,95,329.21,25,25,0,0,0,96.68,320v-5.86Z"/><path class="cls-21" d="M155.63,314.09v27.67h11V314.09Zm-19.33,1.69-.87-1.69h-11.6l12.3,23.66,12.4-23.66H137.16Zm-30.32,26h10.75V314.09H106Z"/><path class="cls-22" d="M45.43,295.86a16.14,16.14,0,0,0-4-5.49,18.62,18.62,0,0,0-6.14-3.57,23.11,23.11,0,0,0-7.82-1.29H0V314H42.55a17,17,0,0,0,1.32-1.6,15.82,15.82,0,0,0,3-9.47A17.07,17.07,0,0,0,45.43,295.86ZM32.72,308.54a9.21,9.21,0,0,1-6.3,2.08H11.66V295.54H26.42a9.16,9.16,0,0,1,6.3,2.09,7.46,7.46,0,0,1,0,10.91Z"/><path class="cls-23" d="M85.05,285.51V314H96.68V285.51Z"/><path class="cls-24" d="M151.7,285.51,137.16,314h11.37l7.1-13.55V314h11V285.51Zm-45.72,0V314h10.75V300.36l7.1,13.63h11.6l-14.54-28.48Z"/><rect class="cls-25" y="356.16" width="625.71" height="6.76"/><rect class="cls-26" x="0.56" y="263.73" width="625.71" height="6.76"/><path class="cls-27" d="M372.59,224.44S299.48,193.49,234.41,201C234.41,201,294.89,201,372.59,224.44Z"/><path class="cls-28" d="M626.56,263.77c-1.25-.36-84.52-24.69-215.18-22.92C279.73,242.62,250.46,230,250.46,230c28.66,2.44,180.5,3.66,180.5,3.66s-60.37-29.88-146.35-41.46S88.77,234.8,88.77,234.8L135.3,243s-84.87,4.45-103.39,6.15a30.54,30.54,0,0,0-7.16,1.51C20,252,13.12,255.91,8,259.13c-4,2.48-6.94,4.56-7.14,4.7a24.07,24.07,0,0,0,.57-19l-.2-.44-.06-.11,0-.11.38.1c3.72-.08,33.93-.94,54.4-8.67,21.84-8.25,137.82-64.06,232-52.41s152.86,49.5,152.86,49.5S581.9,226.9,626.56,263.77Z"/></g></g></svg>