<svg xmlns="http://www.w3.org/2000/svg" viewBox="0 0 1333.34 471.88" shape-rendering="geometricPrecision" text-rendering="geometricPrecision" image-rendering="optimizeQuality" fill-rule="evenodd" clip-rule="evenodd"><path d="M1127.85 260.11c58.48 0 105.88 47.4 105.88 105.88s-47.4 105.88-105.88 105.88-105.88-47.4-105.88-105.88 47.4-105.88 105.88-105.88zm-878.24 55.33v38.13h38.13c-4.59-18.77-19.36-33.54-38.13-38.13zm38.13 62.97h-38.13v38.13c18.77-4.59 33.54-19.37 38.13-38.13zm-62.97 38.13v-38.13h-38.13c4.6 18.76 19.37 33.53 38.13 38.13zm-38.13-62.97h38.13v-38.13c-18.76 4.59-33.53 19.36-38.13 38.13zm953.62-38.13v38.13h38.13c-4.59-18.77-19.36-33.54-38.13-38.13zm38.13 62.97h-38.13v38.13c18.77-4.59 33.54-19.37 38.13-38.13zm-62.97 38.13v-38.13h-38.14c4.6 18.76 19.37 33.53 38.14 38.13zm-38.13-62.97h38.13v-38.13c-18.77 4.59-33.54 19.36-38.13 38.13zM534.81 138.81c-16.67-3.82-33.33-3.77-50-3.02C563.68 94.3 637.92 42.25 726.73 33c30.25-3.15 61.42-3.38 93.24-1.5l-21.1 139.69-251.97 9.44c2.28-6.67 3.61-10.19 4.03-16.86 1.18-18.8.97-21.03-16.12-24.95zM957.76 35.22l-99.3-1.24-27.31 135.3 261.84-10.62c26.87-1.09 31.62-12.96 15.31-35.59-7.43-10.31-15.63-20.55-25.07-30.63-38.43-41.05-67.28-55.1-125.46-57.22zM4.99 296h7.98c5.03-22.09 14.91-42.07 29.36-60.04 31.94-39.74 46.49-34.77 93.88-43.3l265.43-50.04C460.6 100.74 531.63 63.4 618.3 31.93 698.83 2.68 755.53-.17 841.62 0c49.25.09 99.19 3.07 149.87 9.14 25.71 1.61 50.9 5.11 75.67 10.15 29.63 6.02 58.67 14.23 87.28 24l106.34 61.4c31.38 18.11 38.06 39.28 42.11 73.87l14.96 127.87h15.49v70.6c-2.13 23.74-11.5 27.33-31.3 27.33h-25.69c9.99-223.46-304.32-261.64-297.52 17.72H377.16c40.47-192.6-153.75-259.42-249.13-149.36C99.02 306.2 89 352.08 91.58 406.17H22c-5.55-2.56-9.85-6.19-13.14-10.67C-2.52 379.94.02 333.25.78 306.17c.2-7.24-2.08-10.16 4.21-10.16zm232.21-35.89c58.48 0 105.88 47.4 105.88 105.88s-47.4 105.88-105.88 105.88-105.88-47.4-105.88-105.88 47.4-105.88 105.88-105.88z"/></svg>