<svg xmlns="http://www.w3.org/2000/svg" viewBox="0 0 1333.34 462.15" shape-rendering="geometricPrecision" text-rendering="geometricPrecision" image-rendering="optimizeQuality" fill-rule="evenodd" clip-rule="evenodd"><path d="M0 302.68c3.66-20.54 13.97-33.22 34.36-34-1.71-21.46 2.21-39.58 11.65-54.43 4.39-6.91 9.98-13.11 16.76-18.61 23.65-19.2 50.39-21.27 79.5-26.56 28.26-5.13 56.52-9.46 84.78-12.81 34.15-4.06 68.32-6.71 102.47-7.69 15.83-.45 12.03.42 24.57-9.28 61.44-47.52 128.35-86.44 198.54-120.22 24.39-12.09 55.7-18.02 92.5-19.09h220.23c48.62.24 89.96 11.39 124.8 32.3l133.61 102.78c44.54 2.94 89.07 5.87 133.61 8.81 27.27-.73 48.14 8.59 56.11 38.17v90.22c37.74 9.68 13.13 96.72-3.78 115.78-14.94 16.83-28.48 14.87-48.47 14.87h-119.06c22.85-172.12-152.52-208.85-224.81-115.1-23.86 30.95-27.46 73.13-17.59 122.78H359.24c27.71-127.49-54.71-179.43-130.42-172-97.45 9.56-123.09 87.7-106.35 173.53H38.09C14.02 413.14 2.82 393.93.03 361.5v-58.81zm1018.9-34.16c53.47 0 96.82 43.35 96.82 96.82 0 53.47-43.35 96.82-96.82 96.82-53.47 0-96.82-43.35-96.82-96.82 0-53.47 43.35-96.82 96.82-96.82zm-765.91 50.59v34.87h34.87c-4.2-17.16-17.71-30.67-34.87-34.87zm34.87 57.58h-34.87v34.87c17.16-4.2 30.67-17.7 34.87-34.87zm-57.58 34.87v-34.87h-34.87c4.2 17.16 17.7 30.67 34.87 34.87zm-34.87-57.58h34.87v-34.87c-17.16 4.2-30.67 17.7-34.87 34.87zm834.84-34.87v34.87h34.87c-4.2-17.16-17.71-30.67-34.87-34.87zm34.87 57.58h-34.87v34.87c17.16-4.2 30.67-17.7 34.87-34.87zm-57.58 34.87v-34.87h-34.87c4.2 17.16 17.7 30.67 34.87 34.87zm-34.87-57.58h34.87v-34.87c-17.16 4.2-30.67 17.7-34.87 34.87zm-731.04-85.46c53.47 0 96.82 43.35 96.82 96.82 0 53.47-43.35 96.82-96.82 96.82-53.47 0-96.82-43.35-96.82-96.82 0-53.47 43.35-96.82 96.82-96.82zm700.5-96.8l18.21-107.21 64.01 80.67-12.04 13.64-11.38 12.9h-58.81zM417.5 128.87v41.63h269.9l19.67-145.02h-73.96c-46.04 5.42-53.5 6.89-95.36 29.11-34.44 18.29-65.87 38.37-99.35 60.27-7.01 4.59-13.98 9.26-20.89 14.01zM749.57 23.93l-21.86 146.76h194.12L941.09 39.5c-79.94-19.48-113.47-15.57-191.52-15.57z"/></svg>