<svg xmlns="http://www.w3.org/2000/svg" viewBox="0 0 1333.34 462.85" shape-rendering="geometricPrecision" text-rendering="geometricPrecision" image-rendering="optimizeQuality" fill-rule="evenodd" clip-rule="evenodd"><path d="M899.21 410.09l-176.24 1.11H359.76c27.76-127.69-54.8-179.7-130.61-172.26-97.6 9.57-123.28 87.83-106.52 173.8H38.12C14.01 413.76 2.8 394.52 0 362.04v-58.9c3.67-20.57 14-33.28 34.41-34.05-1.71-21.49 2.22-39.64 11.67-54.51 4.4-6.92 10-13.13 16.78-18.64 23.68-19.23 50.46-21.3 79.63-26.6 28.3-5.14 56.61-9.47 84.91-12.83 34.2-4.07 68.42-6.72 102.63-7.7 15.85-.45 12.05.42 24.61-9.29 61.53-47.59 128.55-86.57 198.83-120.4C577.9 7.02 609.26 1.07 646.1.01h76.86l299.49 1.24c53.85-1.22 144.77-7.5 182.97 35.93l76.34 86.78c10.51 11.94 10.89 12.36 16.59 27.22l7.93 20.69c5.55 14.46 6.7 15.4 6.7 30.9v66.04c15.19 2.48 20.87 8.7 20.31 28.26v25.85c0 20.66.63 34-10.72 52.89-11.15 18.56-29.46 28.17-55.52 28.1h-126.28c14.44-86.06-20.48-164.02-117.98-164.35-68.06-.23-136.66 51.88-123.6 170.53zm-645.83-90.5v34.92h34.92c-4.21-17.19-17.74-30.71-34.92-34.92zm34.92 57.67h-34.92v34.92c17.19-4.21 30.71-17.74 34.92-34.92zm-57.67 34.92v-34.92h-34.92c4.21 17.19 17.73 30.71 34.92 34.92zm-34.92-57.67h34.92v-34.92c-17.19 4.21-30.71 17.73-34.92 34.92zm839.02-34.92v34.92h34.92c-4.21-17.19-17.73-30.71-34.92-34.92zm34.92 57.67h-34.92v34.92c17.19-4.21 30.71-17.74 34.92-34.92zm-57.67 34.92v-34.92h-34.92c4.21 17.19 17.74 30.71 34.92 34.92zm-34.92-57.67h34.92v-34.92c-17.19 4.21-30.71 17.73-34.92 34.92zM418.15 173.9h270.31l19.7-145.24h-74.07c-46.11 5.43-53.58 6.91-95.5 29.16-34.5 18.31-65.97 38.43-99.5 60.37-29.25 19.13-20.93 19.23-20.93 55.72zM750.72 27.11l-21.89 146.98h263.63l-40-146.48-201.74-.5zm240.1-1.12l35.35 146.92h166.8c5.47-3.83 10.32-8.29 14.48-13.44 8.5-10.54 11.88-13.43 4.8-23.64l-31.85-45.87c-15.26-21.98-22.61-37.76-47.5-50.44-30.6-15.59-50.99-13.53-83.63-13.53h-58.44zm32.54 242.93c53.55 0 96.96 43.41 96.96 96.96 0 53.56-43.41 96.96-96.96 96.96-53.56 0-96.96-43.41-96.96-96.96s43.41-96.96 96.96-96.96zm-781.35 0c53.55 0 96.96 43.41 96.96 96.96 0 53.56-43.41 96.96-96.96 96.96-53.56 0-96.97-43.41-96.97-96.96s43.41-96.96 96.97-96.96z"/></svg>