<?xml version="1.0" standalone="no"?>
<!DOCTYPE svg PUBLIC "-//W3C//DTD SVG 20010904//EN"
 "http://www.w3.org/TR/2001/REC-SVG-20010904/DTD/svg10.dtd">
<svg version="1.0" xmlns="http://www.w3.org/2000/svg"
 width="2656.000000pt" height="2656.000000pt" viewBox="0 0 2656.000000 2656.000000"
 preserveAspectRatio="xMidYMid meet">
<metadata>
Created by potrace 1.11, written by Peter Selinger 2001-2013
</metadata>
<g transform="translate(0.000000,2656.000000) scale(0.100000,-0.100000)"
fill="#000000" stroke="none">
<path d="M12327 25564 c-1 -2 -150 -6 -331 -9 -180 -3 -380 -8 -444 -10 -105
-4 -190 -7 -582 -20 -151 -5 -478 -20 -690 -31 -52 -2 -135 -7 -185 -9 -49 -2
-126 -7 -170 -9 -44 -3 -123 -8 -175 -11 -52 -3 -126 -8 -165 -11 -38 -3 -104
-7 -145 -9 -113 -7 -227 -14 -305 -20 -38 -3 -104 -8 -145 -10 -41 -3 -95 -8
-120 -10 -25 -3 -79 -7 -120 -10 -41 -3 -100 -7 -130 -10 -108 -10 -186 -17
-235 -20 -27 -1 -81 -6 -120 -10 -38 -3 -90 -8 -115 -10 -25 -3 -76 -7 -115
-11 -38 -4 -77 -7 -85 -7 -8 0 -21 -4 -27 -10 -9 -6 -13 -6 -13 2 0 7 -4 10
-9 6 -5 -3 -36 -8 -68 -10 -32 -3 -74 -8 -93 -10 -19 -3 -64 -7 -100 -11 -36
-3 -83 -7 -105 -9 -22 -3 -65 -7 -95 -10 -30 -2 -75 -7 -100 -11 -25 -3 -67
-7 -95 -9 -27 -2 -64 -6 -81 -9 -17 -3 -57 -9 -90 -12 -32 -3 -70 -7 -84 -9
-14 -2 -50 -6 -80 -9 -30 -4 -71 -9 -90 -11 -19 -2 -60 -7 -90 -10 -30 -3 -70
-8 -87 -10 -18 -3 -48 -7 -65 -10 -31 -4 -98 -12 -178 -20 -19 -2 -44 -6 -55
-8 -20 -5 -122 -17 -180 -23 -16 -1 -30 -3 -30 -4 0 -1 -11 -3 -25 -5 -52 -5
-126 -15 -150 -19 -14 -3 -43 -7 -65 -10 -51 -6 -123 -16 -155 -22 -64 -11
-128 -18 -157 -19 -18 0 -33 -2 -33 -5 0 -3 -15 -7 -33 -8 -19 -1 -47 -6 -63
-10 -16 -5 -46 -8 -66 -8 -21 1 -38 -2 -38 -6 0 -4 -8 -7 -17 -6 -10 0 -36 -3
-58 -7 -22 -3 -56 -8 -75 -10 -19 -2 -35 -4 -35 -5 0 -2 -87 -17 -150 -26 -76
-10 -121 -17 -180 -28 -16 -3 -59 -10 -95 -16 -79 -12 -117 -19 -150 -25 -30
-7 -62 -12 -115 -20 -33 -4 -141 -24 -230 -41 -10 -2 -37 -6 -59 -10 -22 -3
-43 -7 -46 -9 -3 -2 -23 -6 -45 -9 -22 -3 -51 -8 -65 -11 -14 -2 -36 -7 -50
-9 -14 -3 -50 -9 -80 -15 -30 -6 -66 -12 -80 -15 -14 -2 -59 -11 -100 -20 -41
-8 -88 -18 -105 -20 -16 -3 -75 -15 -130 -26 -55 -11 -111 -23 -125 -25 -14
-3 -36 -7 -50 -10 -26 -6 -55 -12 -93 -19 -41 -8 -389 -84 -512 -112 -78 -17
-74 -16 -170 -39 -38 -9 -77 -18 -85 -20 -8 -2 -53 -12 -100 -24 -47 -11 -96
-22 -110 -25 -14 -3 -40 -9 -57 -15 -18 -5 -33 -8 -33 -5 0 3 -8 0 -18 -5 -9
-5 -33 -12 -52 -15 -39 -8 -65 -14 -65 -16 0 -1 -7 -3 -15 -5 -8 -2 -55 -13
-104 -25 -49 -12 -94 -23 -100 -24 -6 -1 -17 -5 -23 -9 -7 -5 -13 -6 -13 -3 0
3 -25 -4 -55 -14 -30 -10 -55 -17 -55 -15 0 2 -15 -1 -32 -6 -18 -6 -40 -12
-48 -14 -8 -2 -49 -14 -90 -25 -41 -11 -85 -23 -97 -26 -12 -2 -34 -9 -48 -14
-14 -5 -29 -9 -33 -8 -4 1 -14 -1 -22 -5 -19 -7 -87 -28 -103 -31 -7 -2 -19
-6 -27 -9 -8 -3 -51 -16 -95 -27 -82 -22 -128 -36 -365 -111 -74 -24 -138 -44
-142 -45 -5 -1 -10 -3 -13 -4 -3 -1 -8 -3 -12 -4 -27 -7 -159 -52 -163 -56 -3
-3 -12 -6 -20 -8 -8 -2 -55 -17 -103 -34 l-88 -31 5 -446 c6 -617 22 -1031 61
-1601 3 -41 7 -102 10 -135 2 -33 6 -91 10 -130 3 -38 8 -101 11 -140 2 -38 6
-88 8 -110 3 -22 8 -78 11 -125 3 -47 8 -101 11 -120 3 -19 7 -62 9 -95 3 -33
7 -82 10 -110 3 -27 8 -77 11 -110 3 -33 7 -73 9 -90 4 -30 14 -126 20 -200 2
-22 4 -40 5 -40 1 0 3 -18 5 -40 2 -22 6 -60 10 -85 9 -74 14 -112 20 -178 4
-35 8 -71 10 -80 4 -21 17 -127 20 -167 2 -16 6 -48 9 -70 9 -60 18 -126 21
-160 2 -16 6 -46 9 -65 7 -44 25 -172 32 -225 3 -22 6 -52 7 -67 1 -16 4 -28
7 -28 3 0 6 -12 6 -27 3 -45 12 -116 27 -208 16 -93 26 -160 32 -200 2 -16 6
-41 9 -55 5 -25 11 -67 21 -137 3 -21 8 -49 11 -63 3 -14 8 -41 10 -60 2 -19
7 -46 10 -60 3 -14 8 -38 10 -55 4 -29 8 -52 19 -105 3 -14 7 -41 10 -60 2
-19 6 -45 9 -56 2 -12 7 -37 10 -55 3 -19 8 -45 10 -59 18 -91 48 -258 50
-275 2 -11 8 -44 16 -73 7 -29 10 -56 6 -59 -3 -3 -2 -11 3 -17 5 -6 11 -27
14 -46 3 -19 12 -69 21 -110 8 -41 17 -86 20 -100 2 -14 12 -59 21 -100 9 -41
17 -84 19 -95 2 -11 6 -33 10 -50 3 -16 8 -39 10 -50 3 -11 9 -40 15 -65 5
-25 13 -61 16 -80 3 -19 8 -43 11 -52 3 -9 7 -25 9 -35 2 -10 11 -52 20 -93
10 -41 19 -84 21 -95 2 -11 10 -47 18 -80 7 -33 21 -94 30 -135 9 -41 23 -96
31 -123 8 -26 14 -50 14 -52 -1 -21 25 -121 32 -126 9 -5 297 45 329 58 8 3
22 7 30 8 48 8 162 35 234 56 38 12 76 22 85 24 37 9 151 45 211 69 146 56
132 44 124 101 -3 27 -10 55 -15 61 -5 6 -6 14 -3 17 3 3 2 11 -2 18 -4 7 -9
22 -10 33 -4 34 -12 78 -24 126 -6 25 -12 52 -14 61 -3 9 -7 33 -10 53 -3 20
-11 55 -16 78 -14 55 -23 107 -24 136 -1 12 -4 22 -8 22 -4 0 -6 8 -6 18 0 9
-2 28 -5 42 -15 62 -18 77 -21 105 -3 17 -7 42 -10 55 -3 14 -8 36 -10 50 -9
45 -16 85 -22 120 -7 38 -14 79 -18 95 -4 14 -19 105 -22 130 -1 11 -3 20 -4
20 -2 0 -7 24 -14 72 -3 21 -7 48 -10 59 -2 12 -7 39 -11 60 -12 77 -15 99
-20 124 -12 56 -15 77 -20 115 -3 22 -7 51 -10 65 -2 13 -7 42 -11 65 -3 22
-17 112 -30 200 -14 88 -26 174 -28 190 -4 33 -16 118 -22 150 -2 10 -6 37 -9
60 -3 22 -10 72 -15 110 -5 39 -12 90 -15 115 -4 25 -8 56 -10 70 -3 14 -6 45
-9 70 -5 52 -15 128 -23 185 -3 22 -7 56 -9 75 -4 42 -12 112 -19 160 -5 35
-9 71 -20 185 -6 62 -11 112 -19 180 -3 22 -8 69 -11 105 -3 36 -7 76 -9 90
-3 14 -7 61 -10 105 -3 44 -8 100 -11 125 -6 55 -14 143 -20 230 -5 65 -11
140 -21 260 -3 36 -6 90 -8 121 -1 30 -6 61 -10 67 -3 6 -2 13 4 17 6 4 7 11
4 17 -4 5 -8 40 -10 76 -2 37 -6 99 -8 137 -12 183 -19 349 -20 442 -1 57 -3
103 -6 103 -6 0 -11 208 -14 482 0 98 -5 178 -9 178 -4 0 -4 7 1 15 4 9 5 38
2 65 -4 28 -2 50 2 50 5 0 6 5 3 11 -7 10 -7 108 -2 248 l2 55 56 22 c117 45
639 216 729 239 8 2 71 20 140 40 69 21 130 38 135 39 6 2 30 9 55 16 25 7 50
14 55 16 6 1 37 9 70 19 86 23 128 35 145 39 8 2 35 9 60 16 25 7 56 14 69 17
14 2 28 6 33 9 4 3 18 7 29 9 12 3 57 14 100 25 44 11 89 22 101 24 13 3 23 5
23 6 0 1 7 3 15 5 8 2 35 8 60 14 25 7 54 14 65 16 11 3 29 7 40 10 86 20 243
57 255 60 8 2 15 4 15 5 0 1 9 3 20 4 11 2 36 7 55 11 19 5 37 9 40 10 3 1 19
4 35 8 17 4 39 9 50 11 11 3 85 19 165 36 80 17 154 33 165 36 11 2 34 7 50
11 17 4 35 8 40 8 22 3 113 21 118 24 1 2 16 5 32 7 62 11 70 12 70 14 0 1 11
3 25 6 14 2 36 6 50 9 14 3 48 9 75 14 28 6 61 13 75 16 14 2 41 8 60 11 19 4
44 9 55 11 11 2 29 6 40 7 11 2 36 7 55 10 19 4 73 14 120 22 47 9 94 18 105
20 17 3 66 12 165 30 14 2 120 20 235 39 116 20 224 38 240 41 17 3 44 7 60
10 17 2 41 6 55 9 14 2 45 7 70 10 25 3 56 8 70 10 24 5 52 9 115 19 79 12
112 17 140 20 17 3 44 7 60 10 17 3 68 10 115 17 47 6 94 13 105 14 11 2 43 6
70 10 28 3 61 8 75 10 14 2 48 7 75 10 28 4 64 9 80 12 39 6 75 11 218 28 32
3 67 8 78 10 11 2 47 7 80 10 33 4 68 8 77 10 9 1 49 6 87 10 39 4 81 9 95 11
14 2 48 6 75 9 28 3 66 8 86 10 20 3 56 8 80 10 24 2 69 7 99 11 120 13 151
17 280 29 19 2 62 6 95 10 33 3 80 8 105 10 25 3 63 6 85 9 82 8 211 19 243
20 17 0 32 3 32 6 0 3 19 6 43 6 23 1 78 5 122 8 44 4 105 9 135 12 30 3 80 7
110 9 30 3 80 7 110 9 30 3 89 7 130 10 41 3 104 7 140 11 88 8 189 15 285 20
44 3 105 7 135 9 118 9 308 19 367 20 35 1 63 3 63 6 0 3 35 6 78 7 42 1 127
4 187 7 201 10 309 15 444 21 74 3 138 8 142 11 4 2 10 0 14 -6 4 -6 12 -7 18
-3 11 7 29 8 347 18 349 10 575 15 881 20 168 2 309 5 315 6 5 1 11 0 14 -1
14 -5 128 -2 138 4 6 3 13 2 16 -3 3 -4 23 -6 43 -2 49 8 65 7 81 -2 6 -5 12
-5 12 0 0 4 48 7 107 5 140 -3 132 -3 251 0 56 2 102 1 102 -2 0 -3 34 -5 75
-5 41 0 75 4 75 8 0 5 4 6 10 2 5 -3 175 -8 377 -11 476 -6 673 -11 680 -18 3
-2 15 -1 28 4 13 5 25 6 28 3 3 -3 72 -7 154 -9 233 -7 524 -18 743 -29 58 -2
155 -7 215 -10 61 -2 151 -7 200 -10 50 -4 122 -8 160 -10 110 -6 254 -14 325
-20 36 -2 103 -7 150 -10 120 -8 238 -16 285 -20 22 -2 83 -6 135 -10 153 -10
179 -13 191 -21 8 -5 9 -3 4 6 -6 9 -4 11 4 5 14 -8 30 -10 161 -19 47 -4 103
-9 125 -11 22 -3 74 -7 115 -9 41 -3 75 -6 75 -7 0 -1 16 -3 35 -4 19 -1 67
-6 105 -10 118 -12 158 -15 220 -20 33 -2 60 -5 60 -6 0 -1 16 -3 35 -4 42 -4
120 -13 175 -19 36 -5 69 -8 200 -21 102 -10 142 -15 165 -19 14 -3 52 -7 85
-10 33 -3 71 -7 85 -10 14 -2 50 -7 80 -11 30 -3 73 -8 95 -11 22 -3 60 -7 85
-9 25 -2 45 -4 45 -5 0 -1 16 -3 35 -5 19 -2 53 -6 75 -9 22 -4 60 -9 85 -12
25 -3 61 -7 80 -10 19 -3 52 -7 73 -9 21 -2 50 -6 65 -9 15 -3 47 -8 72 -11
42 -4 104 -13 141 -20 9 -2 40 -6 70 -10 59 -7 100 -13 139 -20 14 -2 45 -7
70 -10 25 -3 74 -11 110 -17 36 -6 76 -12 90 -13 14 -1 43 -5 65 -9 22 -4 67
-11 100 -16 33 -6 74 -12 90 -15 17 -3 46 -8 65 -11 19 -3 127 -21 240 -40
113 -20 219 -38 235 -40 17 -3 53 -9 80 -14 46 -9 189 -35 260 -47 17 -3 62
-11 100 -19 39 -8 84 -17 100 -19 17 -3 39 -7 50 -9 28 -6 225 -46 255 -52 14
-2 88 -18 165 -34 170 -35 182 -38 220 -45 17 -3 46 -10 65 -15 33 -9 46 -11
115 -25 17 -3 46 -10 65 -15 19 -5 46 -11 60 -14 39 -8 73 -15 95 -21 11 -3
58 -14 105 -24 47 -11 103 -25 124 -30 22 -5 42 -9 45 -9 3 1 13 -1 21 -5 12
-4 67 -18 133 -33 4 -1 9 -3 12 -4 6 -3 5 -3 60 -15 22 -4 46 -10 53 -12 6 -1
18 -4 25 -6 6 -1 18 -6 25 -10 6 -5 12 -6 12 -3 0 3 24 -2 53 -10 51 -14 98
-27 167 -45 89 -23 412 -112 470 -129 36 -11 106 -31 155 -45 253 -74 780
-248 815 -270 8 -5 5 -741 -4 -965 -7 -173 -16 -370 -21 -450 -2 -41 -6 -127
-10 -190 -3 -63 -7 -140 -10 -170 -2 -30 -7 -98 -11 -150 -3 -52 -7 -113 -9
-135 -1 -22 -6 -83 -10 -135 -3 -52 -8 -111 -10 -130 -2 -19 -6 -71 -10 -115
-3 -44 -8 -93 -9 -110 -2 -16 -6 -66 -10 -110 -4 -44 -9 -98 -12 -120 -2 -22
-6 -65 -9 -96 -2 -31 -6 -69 -9 -85 -2 -16 -7 -58 -10 -94 -8 -87 -16 -168
-21 -205 -2 -16 -7 -57 -11 -90 -10 -89 -12 -105 -19 -165 -3 -30 -8 -71 -10
-90 -2 -19 -7 -53 -10 -75 -3 -22 -8 -53 -9 -70 -10 -81 -19 -152 -21 -166 -2
-9 -6 -40 -10 -70 -3 -30 -8 -65 -11 -79 -2 -14 -6 -43 -9 -65 -2 -22 -7 -57
-10 -77 -3 -21 -7 -55 -10 -75 -3 -20 -8 -50 -11 -67 -3 -17 -7 -49 -10 -71
-2 -22 -6 -51 -9 -65 -5 -24 -11 -58 -20 -127 -8 -54 -16 -106 -22 -138 -12
-71 -25 -163 -26 -182 0 -7 -3 -13 -7 -13 -4 0 -6 -10 -5 -22 1 -13 -2 -39 -6
-58 -4 -19 -10 -51 -12 -70 -3 -19 -8 -44 -10 -55 -3 -11 -8 -40 -11 -65 -7
-51 -14 -85 -16 -85 -1 0 -3 -11 -5 -25 -11 -87 -18 -126 -26 -136 -5 -6 -6
-13 -4 -16 3 -3 1 -26 -5 -52 -5 -25 -13 -63 -16 -82 -3 -20 -8 -46 -10 -58
-3 -11 -7 -34 -10 -51 -3 -16 -7 -40 -10 -52 -2 -13 -6 -35 -9 -50 -3 -16 -10
-48 -15 -73 -6 -25 -12 -56 -14 -70 -3 -14 -5 -25 -6 -25 -1 0 -3 -9 -4 -20
-2 -11 -7 -36 -11 -55 -5 -19 -10 -43 -11 -52 -1 -10 -2 -19 -4 -20 -1 -2 -3
-12 -5 -23 -1 -11 -5 -33 -9 -50 -3 -16 -8 -40 -10 -53 -3 -13 -7 -31 -10 -40
-3 -9 -7 -33 -10 -52 -3 -19 -10 -51 -16 -70 -6 -19 -13 -51 -16 -70 -3 -19
-10 -53 -16 -75 -6 -22 -13 -53 -15 -70 -7 -38 -11 -59 -14 -65 -1 -3 -3 -9
-4 -15 -1 -5 -4 -23 -8 -40 -4 -16 -9 -39 -12 -50 -2 -11 -9 -37 -14 -57 l-9
-37 57 -12 c31 -7 58 -13 61 -14 3 -1 32 -7 65 -14 33 -7 64 -16 70 -19 5 -3
18 -7 30 -8 11 -1 49 -10 85 -19 36 -10 70 -18 75 -20 6 -1 17 -4 25 -7 13 -5
228 -63 270 -73 8 -2 62 -18 120 -35 58 -18 119 -35 136 -39 l31 -8 24 96 c13
53 24 101 25 106 0 6 4 17 7 25 5 14 25 99 31 131 1 8 5 23 9 34 3 11 8 31 11
45 2 14 16 72 30 130 14 58 27 116 30 130 2 14 14 63 25 110 11 47 22 96 24
110 3 14 10 43 15 65 6 22 13 54 16 70 2 17 16 82 30 145 14 63 32 151 41 195
10 44 19 89 22 100 2 11 6 31 7 45 2 14 7 41 12 60 4 19 8 37 9 40 1 3 5 25 9
50 5 25 10 54 13 65 2 11 6 31 9 45 2 14 7 39 11 55 4 17 7 35 8 40 0 6 4 30
9 55 5 25 10 54 12 65 2 11 8 43 14 70 5 28 11 61 14 75 2 14 9 54 16 90 14
76 21 120 22 138 1 6 4 12 7 12 3 0 7 21 8 48 2 42 9 87 13 87 1 0 3 18 6 40
2 22 7 47 10 55 4 8 8 33 10 55 2 22 6 51 9 65 3 14 8 41 10 60 3 19 8 45 11
58 2 12 7 44 10 70 3 26 7 54 9 62 2 8 7 38 11 65 3 28 8 59 10 70 2 11 7 38
10 60 5 39 7 55 19 124 3 19 8 55 11 80 7 63 12 96 14 96 1 0 3 11 4 25 3 32
20 151 31 225 3 22 7 57 8 77 1 21 4 38 7 38 3 0 6 15 7 33 0 17 3 55 7 82 4
28 8 64 10 80 2 17 7 53 10 80 4 28 9 70 12 95 3 25 7 61 10 80 3 19 7 58 10
85 2 28 6 64 9 80 2 17 7 58 10 92 3 34 8 76 10 95 6 40 17 150 20 198 1 19 3
35 4 35 2 0 8 53 15 135 3 30 8 89 12 130 4 41 8 99 8 127 1 29 3 53 6 53 3 0
6 12 6 28 3 70 15 206 20 214 3 4 0 8 -7 8 -8 0 -8 4 -2 13 6 6 10 19 10 27 0
13 4 68 19 255 2 33 6 98 9 145 2 47 5 85 5 85 5 0 21 320 34 645 4 80 8 155
10 168 3 12 0 22 -5 22 -6 0 -7 5 -3 12 11 18 13 77 18 595 4 361 2 474 -7
480 -45 29 -811 277 -952 309 -16 4 -36 11 -42 17 -7 5 -13 7 -13 4 0 -3 -15
-1 -32 5 -85 26 -360 101 -375 101 -7 0 -13 3 -13 7 0 4 -6 7 -12 8 -27 2 -69
12 -218 52 -85 23 -165 42 -177 43 -13 1 -23 4 -23 7 0 4 -6 7 -12 7 -17 1
-68 12 -170 39 -13 3 -32 7 -43 9 -11 3 -65 16 -119 29 -55 14 -103 23 -107
20 -4 -2 -9 0 -11 5 -3 8 -57 21 -105 24 -13 1 -23 5 -23 9 0 4 -8 7 -17 7
-10 0 -36 4 -58 9 -53 13 -223 51 -255 57 -14 3 -47 10 -75 17 -27 6 -59 13
-70 14 -11 1 -20 3 -20 4 0 1 -11 3 -25 6 -14 2 -86 17 -160 34 -142 30 -484
99 -535 106 -16 3 -61 11 -100 19 -38 8 -86 17 -105 20 -19 4 -71 13 -115 21
-181 33 -547 97 -620 108 -16 2 -30 5 -30 6 0 1 -20 4 -45 6 -25 3 -52 7 -60
10 -8 4 -35 8 -60 10 -24 1 -56 6 -69 9 -14 4 -41 9 -61 11 -19 2 -46 7 -60 9
-14 3 -54 10 -90 15 -36 5 -78 12 -95 15 -72 12 -93 15 -145 20 -30 4 -64 9
-75 12 -11 4 -36 8 -55 9 -19 1 -35 3 -35 4 0 1 -13 3 -30 5 -16 2 -46 7 -65
10 -19 4 -53 9 -75 11 -22 3 -56 7 -75 9 -19 3 -53 7 -75 10 -22 2 -53 7 -70
10 -16 3 -47 8 -70 11 -22 2 -53 6 -70 9 -16 2 -52 7 -80 10 -27 3 -63 8 -80
11 -16 3 -50 7 -75 9 -25 3 -58 6 -75 9 -16 2 -50 7 -75 10 -25 3 -63 8 -85
10 -22 3 -62 8 -90 11 -27 4 -61 8 -75 10 -14 1 -52 6 -85 9 -33 3 -76 8 -96
11 -35 5 -88 11 -179 21 -25 2 -58 6 -75 8 -121 14 -186 20 -227 20 -27 1 -48
3 -48 7 0 3 -10 5 -22 6 -31 0 -155 13 -193 19 -16 2 -57 6 -90 9 -177 13
-251 21 -265 30 -5 3 -11 1 -15 -5 -4 -6 -13 -7 -23 -2 -9 5 -42 10 -72 12
-64 3 -121 8 -170 14 -19 2 -71 7 -115 11 -44 3 -107 8 -140 11 -134 11 -164
13 -255 18 -52 4 -111 8 -130 11 -19 2 -80 7 -135 11 -55 4 -120 8 -145 9 -25
2 -85 6 -135 9 -49 3 -128 8 -175 12 -92 6 -166 11 -330 19 -58 3 -136 7 -175
9 -145 9 -297 16 -402 21 -59 3 -155 7 -213 10 -58 3 -170 7 -250 10 -80 3
-206 7 -280 10 -129 4 -299 9 -710 21 -195 6 -2198 13 -2203 8z"/>
<path d="M12757 23383 c-1 0 -166 -4 -367 -8 -567 -11 -685 -14 -685 -15 0 -1
-21 -2 -48 -3 -26 -1 -47 2 -47 6 0 5 -6 5 -12 0 -7 -4 -31 -8 -53 -9 -50 -1
-375 -14 -475 -19 -41 -2 -138 -7 -215 -10 -142 -6 -169 -8 -355 -20 -58 -3
-141 -8 -185 -10 -108 -6 -217 -13 -295 -19 -36 -3 -101 -8 -145 -11 -134 -9
-207 -14 -280 -21 -38 -3 -90 -7 -115 -9 -118 -8 -217 -16 -240 -20 -14 -2
-63 -6 -110 -10 -105 -7 -170 -13 -229 -20 -25 -2 -73 -7 -106 -10 -33 -3 -80
-8 -105 -10 -25 -3 -70 -7 -100 -10 -30 -3 -73 -8 -95 -11 -22 -3 -60 -7 -85
-9 -25 -2 -65 -6 -90 -9 -25 -3 -70 -8 -100 -11 -30 -3 -66 -8 -80 -10 -24 -3
-127 -15 -180 -20 -25 -3 -107 -13 -170 -22 -42 -5 -102 -12 -150 -17 -44 -5
-127 -16 -160 -21 -14 -2 -49 -7 -79 -10 -30 -4 -62 -8 -71 -10 -9 -2 -41 -6
-71 -10 -30 -3 -65 -8 -79 -10 -68 -10 -117 -18 -140 -21 -14 -2 -38 -6 -55
-8 -16 -3 -48 -8 -70 -10 -42 -5 -77 -10 -185 -28 -36 -6 -78 -12 -95 -13 -16
-2 -30 -4 -30 -5 0 -1 -11 -3 -25 -5 -35 -5 -90 -14 -127 -20 -18 -3 -45 -7
-60 -9 -16 -2 -68 -11 -118 -19 -49 -9 -103 -18 -120 -21 -16 -3 -41 -7 -55
-10 -14 -3 -41 -8 -60 -11 -19 -2 -53 -8 -75 -12 -22 -4 -50 -7 -62 -7 -13 -1
-23 -3 -23 -6 0 -3 -8 -6 -17 -7 -24 -3 -72 -10 -103 -17 -37 -8 -81 -16 -120
-22 -19 -3 -42 -7 -50 -9 -15 -4 -77 -15 -115 -21 -11 -1 -20 -3 -20 -4 0 -2
-51 -12 -120 -24 -11 -2 -31 -6 -45 -10 -29 -7 -74 -16 -110 -21 -14 -3 -68
-14 -120 -26 -52 -11 -106 -22 -120 -24 -14 -2 -25 -4 -25 -5 0 -1 -7 -3 -15
-5 -123 -24 -369 -79 -389 -86 -14 -6 -27 -10 -29 -9 -3 2 -56 -8 -131 -27
-36 -8 -72 -16 -80 -18 -47 -9 -592 -148 -686 -175 -60 -17 -117 -33 -125 -35
-8 -1 -35 -8 -60 -15 -25 -7 -46 -12 -47 -12 -1 0 -24 -7 -50 -15 -27 -8 -86
-26 -133 -39 -47 -14 -92 -28 -100 -31 -18 -7 -28 -10 -55 -17 -11 -2 -33 -10
-50 -16 -27 -10 -43 -15 -80 -23 -5 -2 -15 -6 -21 -9 -6 -4 -21 -9 -35 -12
-26 -5 -52 -13 -84 -26 -22 -9 -219 -78 -247 -87 -10 -3 -18 -13 -19 -22 -6
-111 5 -833 16 -1026 2 -38 7 -124 10 -190 12 -233 22 -409 30 -505 2 -25 6
-85 10 -135 9 -134 13 -183 19 -255 12 -125 15 -165 22 -240 3 -41 8 -91 10
-110 2 -19 6 -57 8 -85 2 -27 7 -72 10 -100 3 -27 8 -75 11 -105 4 -30 8 -68
10 -85 2 -16 7 -55 10 -85 3 -30 8 -68 10 -85 2 -16 7 -61 10 -99 7 -65 12
-101 15 -101 0 0 3 -22 5 -50 3 -27 7 -63 9 -80 3 -16 8 -52 11 -80 4 -27 8
-61 11 -75 2 -14 7 -47 10 -75 3 -27 8 -61 10 -75 4 -23 14 -98 19 -145 1 -11
3 -20 4 -20 2 0 4 -16 6 -35 2 -19 6 -48 8 -65 3 -16 9 -52 13 -80 3 -27 8
-59 10 -70 3 -11 7 -36 9 -55 3 -19 8 -51 12 -70 8 -48 18 -107 29 -182 8 -53
22 -134 30 -178 3 -14 7 -38 9 -55 2 -16 7 -41 10 -55 3 -14 7 -38 10 -55 3
-16 7 -42 10 -57 3 -16 7 -40 10 -55 3 -16 9 -53 15 -83 6 -30 12 -66 15 -80
2 -14 4 -25 5 -25 1 0 3 -11 5 -25 8 -57 29 -150 35 -150 5 0 299 111 435 165
109 43 180 69 190 72 25 5 201 76 212 85 6 5 9 19 7 31 -3 12 -7 38 -10 57 -6
43 -12 75 -14 75 -2 0 -6 29 -24 170 -4 33 -10 67 -13 75 -3 8 -7 29 -9 45 -2
17 -5 44 -7 60 -3 17 -8 53 -12 80 -3 28 -9 61 -11 75 -3 14 -7 41 -9 60 -3
19 -8 55 -11 80 -10 62 -12 77 -18 135 -3 28 -8 68 -11 90 -4 22 -8 58 -10 80
-2 22 -4 40 -5 40 -1 0 -4 16 -5 35 -1 19 -6 53 -9 75 -6 37 -11 78 -22 180
-7 76 -13 130 -19 178 -3 26 -7 68 -10 95 -3 26 -8 72 -11 102 -2 30 -6 73 -9
95 -3 37 -7 83 -21 240 -3 33 -7 85 -9 115 -2 30 -4 55 -5 55 -4 0 -26 330
-45 685 -22 403 -35 1126 -20 1150 6 10 41 27 70 34 6 2 21 7 35 13 25 10 186
63 205 68 6 1 13 3 18 4 4 0 21 8 37 16 17 9 30 13 30 10 0 -3 17 2 37 10 21
9 38 16 38 15 0 -1 7 1 15 4 32 10 191 58 202 60 7 2 20 6 28 9 16 7 524 147
553 152 9 2 43 11 75 19 31 9 66 18 77 21 78 20 445 107 473 111 20 3 46 10
59 15 13 5 23 6 23 4 0 -2 10 -1 23 4 13 5 39 12 58 15 19 3 72 14 119 25 47
11 96 22 110 25 14 2 61 12 105 21 44 9 87 18 95 20 8 2 49 10 90 18 41 9 89
18 105 21 149 27 183 34 203 40 9 3 33 8 52 10 67 10 135 23 135 26 0 1 16 3
35 4 19 2 46 6 60 9 14 4 39 9 55 11 17 3 41 7 55 11 14 3 45 8 70 11 25 3 52
7 60 9 8 3 33 7 55 10 22 4 51 8 65 11 14 2 41 7 60 10 19 3 46 7 60 10 14 3
41 7 60 10 19 2 51 7 70 10 19 3 47 8 62 10 16 2 58 9 95 15 38 6 84 13 103
15 19 1 44 5 56 8 12 2 45 7 75 11 30 3 61 8 69 10 8 2 35 6 60 9 25 3 56 8
70 10 14 2 52 7 85 11 32 4 67 8 75 10 9 2 41 6 71 9 30 3 65 8 79 10 26 5 85
12 168 21 26 3 63 8 82 11 19 3 55 8 79 10 24 2 60 6 80 8 52 8 119 15 175 21
26 2 65 7 85 9 20 3 63 8 96 11 33 3 83 8 110 10 106 12 132 14 190 20 33 3
78 8 100 10 22 3 72 7 110 10 39 3 90 8 115 10 25 3 77 7 115 11 39 3 90 7
115 9 25 2 81 7 125 10 44 3 100 8 125 10 25 2 86 6 135 9 50 4 113 8 140 11
28 3 93 7 145 10 52 4 124 8 160 10 36 3 112 7 170 10 58 4 132 8 165 10 54 3
149 8 440 20 123 5 376 15 515 20 652 23 2016 23 2655 0 61 -2 182 -6 270 -9
88 -3 210 -8 270 -11 61 -3 160 -7 220 -10 61 -3 148 -7 195 -10 141 -9 250
-15 355 -20 55 -3 127 -8 160 -10 33 -3 98 -7 145 -10 198 -14 340 -24 395
-30 28 -3 79 -7 115 -10 165 -12 207 -16 226 -19 11 -2 63 -7 115 -11 95 -7
110 -8 209 -19 30 -3 80 -8 110 -11 30 -2 75 -7 100 -10 25 -3 70 -7 100 -10
30 -3 71 -8 90 -10 19 -2 60 -7 90 -10 30 -3 69 -8 85 -10 17 -2 59 -6 95 -10
36 -4 76 -8 90 -11 14 -2 48 -7 75 -10 28 -3 64 -7 80 -9 17 -2 50 -6 75 -9
99 -12 126 -16 150 -20 14 -3 50 -8 80 -11 57 -6 81 -9 140 -18 19 -3 62 -9
95 -13 33 -4 62 -8 65 -9 3 -1 34 -5 70 -9 36 -5 74 -10 85 -13 11 -2 38 -6
60 -9 22 -3 51 -7 65 -10 14 -3 36 -7 50 -9 14 -1 48 -6 75 -10 28 -5 59 -9
70 -11 11 -1 20 -3 20 -4 0 -1 11 -3 25 -5 36 -4 122 -17 145 -21 23 -5 50 -9
115 -19 25 -4 54 -9 65 -12 25 -5 47 -9 110 -18 28 -4 58 -9 68 -11 49 -11 64
-14 102 -21 22 -3 50 -7 63 -7 12 -1 22 -4 22 -8 0 -4 8 -7 18 -6 23 0 92 -11
152 -25 14 -3 50 -10 80 -16 30 -6 71 -14 90 -17 19 -4 45 -8 58 -8 12 -1 22
-4 22 -8 0 -4 8 -6 18 -6 9 0 28 -2 42 -5 52 -12 68 -16 106 -21 22 -4 57 -11
79 -17 22 -6 49 -13 60 -14 11 -2 52 -10 90 -18 39 -9 82 -18 95 -21 14 -3 36
-8 50 -11 14 -3 36 -8 50 -11 14 -3 42 -9 62 -15 20 -5 40 -9 45 -8 4 1 15 -1
23 -4 37 -15 150 -38 160 -32 5 3 10 2 10 -3 0 -5 12 -12 28 -15 15 -3 38 -8
52 -11 14 -3 34 -8 45 -10 11 -2 85 -21 165 -41 80 -20 152 -38 160 -40 38 -9
357 -97 370 -102 8 -3 21 -7 29 -9 12 -2 47 -12 71 -19 3 -1 25 -7 50 -14 25
-6 56 -16 70 -21 14 -5 66 -20 115 -35 50 -15 124 -38 165 -51 41 -14 80 -25
85 -25 6 0 15 -5 20 -9 6 -5 22 -11 36 -13 13 -3 41 -12 62 -20 21 -9 41 -17
45 -18 11 -2 35 -10 52 -17 8 -3 18 -6 23 -7 4 -2 9 -4 12 -5 6 -3 12 -5 42
-15 20 -6 22 -13 20 -59 -2 -28 0 -66 4 -84 4 -17 3 -35 -3 -38 -5 -3 -5 -11
-1 -17 8 -11 8 -36 0 -119 -2 -21 1 -38 5 -38 5 0 6 -5 3 -10 -4 -6 -9 -108
-11 -228 -5 -226 -11 -437 -14 -437 -1 0 -7 -119 -15 -300 -2 -44 -4 -80 -5
-80 -1 0 -3 -34 -5 -75 -4 -77 -10 -158 -21 -290 -3 -41 -7 -100 -9 -130 -2
-30 -4 -55 -5 -55 -1 0 -3 -22 -5 -50 -2 -27 -6 -77 -9 -110 -3 -33 -8 -87
-11 -120 -6 -65 -12 -131 -21 -210 -4 -27 -7 -69 -7 -92 -1 -24 -4 -43 -7 -43
-3 0 -5 -19 -5 -43 1 -23 -2 -46 -4 -52 -3 -5 -6 -23 -7 -40 -1 -16 -4 -55 -8
-85 -4 -30 -9 -75 -12 -100 -2 -25 -7 -56 -9 -70 -2 -14 -7 -50 -9 -80 -3 -30
-8 -66 -10 -80 -5 -30 -17 -112 -22 -159 -2 -19 -6 -50 -9 -70 -3 -20 -7 -49
-10 -66 -9 -58 -18 -119 -29 -210 -3 -22 -8 -49 -10 -60 -2 -11 -7 -42 -10
-70 -4 -27 -9 -57 -11 -65 -2 -8 -6 -35 -9 -60 -3 -25 -8 -56 -11 -70 -3 -14
-8 -43 -10 -65 -3 -22 -7 -47 -10 -55 -2 -8 -7 -35 -10 -60 -4 -25 -11 -67
-16 -94 -5 -27 -7 -51 -4 -54 3 -3 1 -10 -4 -16 -5 -6 -12 -31 -15 -56 -6 -46
-11 -74 -21 -122 -4 -15 -9 -42 -11 -60 -3 -18 -7 -42 -9 -54 -1 -11 -8 -45
-14 -75 -32 -156 -43 -221 -36 -227 4 -4 18 -8 33 -9 51 -3 147 -12 147 -13 0
-2 28 -5 115 -13 36 -4 76 -8 90 -11 25 -4 100 -14 175 -22 41 -5 76 -10 130
-19 124 -21 185 -27 185 -18 0 4 7 40 15 78 13 58 86 412 100 480 2 11 4 20 5
20 1 0 3 16 6 35 2 19 11 69 19 110 21 109 25 132 30 165 3 17 7 41 11 55 3
14 7 37 10 53 2 15 6 39 8 55 3 15 7 38 10 52 3 13 9 42 12 65 8 47 12 75 19
113 2 15 7 43 9 62 3 19 8 46 11 60 3 14 8 45 11 70 2 25 7 55 9 68 3 12 8 34
11 50 3 15 7 45 9 67 2 22 4 40 5 40 1 0 3 11 5 25 2 14 6 43 9 65 4 22 9 58
12 80 3 22 7 54 10 70 6 41 14 94 18 130 2 17 5 32 6 35 1 3 2 8 2 11 -1 3 4
37 9 75 6 38 13 89 15 114 3 25 7 59 9 75 10 66 15 102 19 150 3 28 8 62 11
76 3 14 7 55 10 90 2 35 7 75 9 89 3 14 7 52 11 85 3 33 8 78 11 100 2 22 7
65 9 95 3 30 7 73 9 95 3 22 7 69 11 104 3 35 8 89 11 120 3 31 7 79 9 106 2
28 6 70 9 95 2 25 7 83 11 130 4 47 9 110 11 140 2 30 7 91 9 135 3 44 7 109
10 145 2 36 7 115 10 175 3 61 8 139 10 175 16 257 29 824 26 1161 l-1 66 -92
33 c-51 18 -99 33 -105 33 -7 0 -13 4 -13 9 0 4 -3 7 -7 7 -5 -1 -11 0 -15 1
-5 1 -11 3 -15 4 -14 3 -247 77 -263 84 -8 3 -19 7 -25 8 -5 1 -13 3 -17 4 -5
1 -11 3 -15 4 -5 1 -14 5 -20 9 -7 5 -13 6 -13 2 0 -3 -9 -1 -21 5 -11 6 -28
13 -38 15 -10 2 -51 13 -91 25 -40 12 -81 23 -91 25 -11 2 -23 6 -27 9 -4 2
-52 16 -107 31 -90 24 -256 69 -295 80 -8 2 -62 16 -120 30 -58 15 -112 28
-120 30 -8 3 -35 9 -60 16 -61 15 -61 15 -90 22 -122 31 -484 114 -580 133
-14 3 -41 9 -60 14 -19 5 -48 11 -64 14 -23 4 -120 25 -146 31 -3 1 -25 5 -50
10 -53 10 -59 12 -62 15 -2 1 -12 3 -23 5 -39 5 -90 16 -110 22 -11 3 -29 7
-40 8 -23 3 -87 14 -119 22 -11 2 -30 6 -41 7 -11 2 -31 6 -45 9 -14 4 -41 9
-60 12 -40 7 -67 12 -95 18 -11 3 -42 8 -69 11 -27 4 -53 9 -57 11 -4 3 -24 7
-45 10 -22 2 -52 8 -69 11 -16 4 -39 8 -50 10 -11 1 -20 3 -20 4 0 1 -13 3
-30 5 -16 2 -41 6 -55 9 -14 4 -41 9 -60 12 -19 2 -46 6 -60 9 -42 7 -143 24
-245 40 -22 3 -51 8 -65 11 -33 6 -88 14 -125 18 -16 2 -37 6 -45 9 -8 3 -22
5 -30 6 -8 0 -30 2 -47 5 -18 3 -46 8 -61 10 -16 2 -64 10 -108 16 -43 7 -92
13 -109 15 -16 1 -37 5 -45 8 -8 3 -76 13 -150 22 -74 10 -146 19 -160 21 -14
2 -43 5 -65 8 -22 2 -56 7 -75 10 -19 3 -53 8 -75 10 -22 3 -56 7 -75 10 -30
5 -286 36 -420 51 -25 3 -61 7 -80 10 -19 2 -62 7 -95 10 -33 4 -76 9 -95 11
-19 2 -60 6 -90 9 -70 6 -155 15 -200 21 -19 2 -60 6 -90 9 -257 26 -405 39
-535 50 -91 7 -178 14 -240 20 -27 2 -86 7 -130 10 -44 3 -100 8 -125 10 -70
7 -251 18 -287 19 -18 0 -33 3 -33 6 0 3 -33 5 -73 6 -39 0 -124 4 -187 8
-245 16 -318 20 -555 31 -66 3 -156 8 -200 10 -83 4 -403 17 -490 19 -27 1
-55 5 -62 9 -6 4 -14 3 -17 -2 -6 -8 -53 -6 -83 4 -7 2 -13 0 -13 -6 0 -6 -5
-7 -10 -4 -10 6 -171 12 -585 19 -115 2 -214 5 -220 6 -5 1 -14 2 -20 1 -5 -1
-59 -1 -120 0 -143 2 -1046 4 -1048 2z"/>
<path d="M10707 17904 c-1 -2 -65 -6 -142 -9 -196 -8 -253 -13 -265 -20 -5 -3
-10 -1 -10 5 0 6 -4 9 -9 6 -4 -3 -37 -8 -72 -11 -82 -7 -171 -14 -234 -20
-27 -3 -75 -8 -105 -10 -30 -3 -68 -7 -85 -9 -16 -2 -60 -7 -97 -10 -37 -4
-77 -9 -90 -11 -13 -2 -45 -6 -73 -10 -27 -3 -63 -8 -80 -10 -16 -3 -50 -7
-75 -10 -25 -2 -56 -7 -70 -9 -14 -3 -47 -8 -75 -11 -27 -4 -59 -9 -70 -10
-11 -2 -38 -6 -60 -9 -22 -3 -51 -8 -65 -11 -13 -2 -40 -7 -60 -10 -19 -3 -87
-14 -150 -26 -63 -11 -128 -22 -145 -24 -16 -3 -52 -9 -80 -15 -27 -5 -66 -12
-85 -15 -19 -3 -42 -8 -50 -10 -8 -2 -28 -7 -45 -10 -38 -6 -73 -13 -105 -20
-14 -4 -36 -8 -50 -11 -70 -13 -286 -61 -460 -101 -107 -24 -203 -46 -213 -48
-10 -2 -27 -7 -37 -10 -10 -3 -27 -7 -37 -9 -10 -2 -38 -9 -63 -16 -25 -7 -53
-14 -64 -16 -10 -2 -44 -11 -75 -20 -31 -10 -60 -18 -66 -18 -16 -2 -118 -27
-135 -33 -8 -3 -19 -7 -25 -8 -5 -2 -30 -8 -55 -16 -62 -17 -64 -18 -130 -34
-8 -2 -15 -4 -15 -5 0 -2 -31 -10 -55 -14 -8 -2 -42 -11 -75 -21 -33 -11 -62
-19 -65 -20 -44 -10 -77 -19 -85 -23 -5 -4 -18 -8 -27 -9 -33 -5 -43 -8 -48
-14 -6 -7 -184 -54 -189 -50 -2 1 -7 -2 -10 -8 -4 -5 -18 -12 -33 -15 -14 -2
-78 -21 -142 -41 -63 -20 -117 -36 -118 -35 -2 0 -39 -12 -83 -28 -44 -16 -83
-30 -87 -31 -27 -6 -289 -91 -313 -101 -11 -5 -76 -27 -145 -50 -69 -24 -186
-64 -260 -90 -74 -27 -193 -69 -265 -94 -71 -26 -139 -50 -150 -55 -20 -10
-116 -45 -125 -47 -3 0 -14 -4 -25 -9 -100 -41 -134 -52 -139 -47 -3 3 -6 0
-6 -6 0 -7 -7 -12 -16 -12 -8 0 -36 -9 -62 -20 -26 -10 -112 -45 -192 -76
-232 -90 -493 -194 -515 -204 -11 -5 -110 -46 -220 -90 -110 -45 -215 -88
-232 -96 -45 -20 -192 -82 -488 -203 -137 -57 -258 -107 -269 -113 -10 -5 -26
-11 -35 -14 -9 -2 -73 -23 -143 -47 -71 -25 -128 -43 -128 -42 0 2 -39 -8 -88
-21 -48 -14 -99 -27 -114 -29 -15 -2 -31 -6 -36 -9 -5 -3 -22 -8 -38 -11 -16
-3 -38 -8 -49 -10 -73 -16 -263 -53 -275 -54 -8 0 -51 -7 -95 -15 -44 -8 -100
-17 -125 -20 -25 -3 -54 -8 -65 -10 -11 -2 -47 -7 -80 -10 -33 -4 -71 -9 -85
-11 -14 -2 -52 -7 -85 -10 -33 -3 -78 -8 -100 -10 -130 -13 -183 -18 -345 -30
-86 -7 -329 -18 -392 -19 -32 0 -58 0 -58 -1 0 0 10 -25 21 -55 54 -142 74
-371 44 -526 -16 -87 -62 -226 -78 -239 -17 -14 -17 -278 0 -285 10 -4 26361
-5 26385 -1 3 0 6 62 6 136 0 74 2 138 5 142 3 4 -29 33 -70 63 -41 30 -81 61
-88 68 -8 6 -18 12 -23 12 -5 0 -17 9 -27 20 -10 11 -21 17 -26 15 -4 -3 -10
-1 -14 5 -7 12 -198 125 -204 121 -2 -1 -7 1 -10 6 -13 19 -441 219 -441 206
0 -3 -6 -1 -12 4 -25 19 -290 117 -463 170 -178 56 -440 129 -529 149 -12 3
-25 7 -31 8 -5 2 -29 7 -52 11 -24 4 -43 12 -43 17 0 5 -4 7 -9 4 -5 -3 -60 6
-122 20 -135 31 -290 63 -338 70 -19 2 -38 7 -42 10 -5 2 -30 7 -56 10 -26 2
-57 7 -68 11 -11 4 -29 8 -40 9 -11 1 -60 9 -110 18 -49 10 -103 19 -120 21
-100 13 -150 22 -150 25 0 1 -16 3 -35 4 -19 2 -48 6 -65 9 -29 6 -97 15 -160
22 -16 2 -48 7 -70 10 -49 7 -105 14 -165 21 -51 6 -84 10 -155 19 -69 9 -90
11 -170 19 -38 4 -90 10 -115 13 -25 3 -63 7 -85 9 -113 10 -164 15 -205 19
-25 2 -45 4 -45 5 0 1 -88 7 -205 15 -30 2 -55 4 -55 5 0 1 -22 3 -50 5 -46 3
-108 7 -320 21 -44 3 -116 7 -160 9 -44 2 -80 4 -80 5 0 1 -36 3 -80 5 -278
13 -345 16 -480 21 -82 3 -221 7 -308 8 -86 2 -160 6 -163 9 -3 3 -17 2 -30
-3 -13 -5 -25 -6 -28 -2 -3 5 -20 7 -38 5 -18 -2 -40 -3 -48 -3 -65 4 -1150 4
-1150 0 0 -3 -65 -5 -145 -5 -123 0 -147 3 -165 18 -11 9 -22 17 -25 17 -3 0
-50 27 -106 60 -55 33 -102 60 -104 60 -1 0 -46 25 -99 55 -195 110 -901 455
-932 455 -8 0 -14 5 -14 11 0 5 -5 7 -10 4 -5 -3 -10 -1 -10 4 0 6 -3 10 -7 9
-9 -1 -38 10 -116 46 -29 13 -92 40 -142 61 -49 20 -103 43 -120 50 -84 36
-437 175 -540 212 -38 14 -81 30 -95 36 -14 5 -29 11 -35 13 -5 1 -48 16 -95
34 -47 17 -128 45 -180 63 -52 17 -97 34 -100 37 -3 3 -9 6 -15 6 -13 2 -230
72 -270 87 -16 6 -34 12 -40 13 -5 1 -48 14 -95 29 -164 52 -317 97 -337 98
-7 0 -13 4 -13 9 0 4 -3 7 -7 6 -9 -1 -59 10 -83 19 -8 4 -19 7 -25 7 -5 1
-30 8 -55 15 -25 7 -52 15 -60 16 -8 2 -15 4 -15 5 0 1 -7 3 -15 5 -8 1 -33 8
-55 14 -22 6 -44 11 -50 12 -5 1 -20 5 -33 10 -12 5 -35 11 -50 14 -29 7 -39
9 -62 17 -14 5 -255 66 -290 73 -8 2 -37 9 -65 15 -27 6 -58 13 -68 15 -10 2
-26 6 -35 9 -9 3 -28 7 -42 10 -14 3 -36 8 -50 11 -14 4 -34 8 -45 10 -11 2
-22 4 -25 5 -3 1 -9 3 -15 4 -5 1 -23 5 -40 9 -16 4 -39 9 -50 11 -11 3 -41 9
-68 15 -26 6 -64 14 -85 17 -20 3 -50 9 -67 14 -16 5 -43 11 -60 14 -16 3 -43
8 -60 11 -29 5 -270 52 -310 59 -11 2 -63 11 -115 20 -138 24 -142 24 -180 30
-19 3 -44 7 -55 10 -11 2 -40 7 -65 10 -25 3 -56 8 -70 10 -65 11 -213 32
-290 41 -30 4 -58 9 -61 11 -4 2 -35 6 -70 9 -35 3 -75 8 -89 10 -66 10 -100
15 -165 21 -38 3 -86 8 -105 9 -19 2 -35 4 -35 5 0 1 -22 3 -50 5 -27 2 -88 6
-135 9 -204 15 -317 18 -673 20 -207 1 -379 1 -380 0z m-34 -387 c18 11 580
11 595 0 8 -6 12 -6 12 2 0 7 4 10 9 7 5 -3 69 -8 143 -11 73 -3 151 -7 173
-9 22 -2 76 -7 120 -11 44 -4 96 -8 115 -10 19 -3 60 -7 90 -10 30 -3 66 -7
80 -9 14 -2 54 -7 90 -11 36 -3 72 -9 80 -12 8 -3 31 -7 50 -9 19 -1 53 -6 75
-9 22 -3 54 -8 70 -10 17 -2 44 -6 60 -9 17 -2 48 -7 70 -11 22 -3 65 -10 95
-15 30 -5 71 -12 90 -14 19 -3 45 -7 57 -10 34 -7 116 -20 135 -21 9 0 19 -3
23 -7 4 -4 13 -4 20 -2 7 3 16 0 20 -5 3 -6 9 -9 13 -7 4 2 52 -4 107 -15 55
-10 116 -21 135 -24 37 -5 64 -10 115 -21 17 -4 37 -8 45 -9 8 -1 33 -6 55
-10 22 -5 47 -9 55 -10 8 -1 22 -5 30 -8 8 -3 31 -8 50 -11 19 -2 67 -11 105
-20 98 -21 127 -27 150 -31 35 -7 66 -14 87 -21 11 -3 30 -7 41 -9 32 -5 77
-15 117 -25 19 -5 46 -11 60 -14 14 -3 34 -7 45 -10 152 -36 195 -46 215 -50
14 -2 106 -25 205 -50 99 -26 189 -48 200 -51 18 -3 231 -61 315 -85 42 -12
216 -61 360 -101 58 -16 116 -33 130 -38 26 -9 35 -11 200 -61 58 -17 112 -34
120 -38 8 -3 20 -7 25 -7 6 -1 17 -5 25 -8 38 -14 186 -60 198 -60 6 0 12 -3
12 -7 0 -4 6 -7 13 -8 14 -1 37 -7 57 -15 17 -7 310 -107 325 -111 6 -2 18 -6
27 -10 9 -4 23 -9 32 -10 8 -1 19 -5 22 -9 4 -4 17 -7 29 -7 11 0 25 -4 30 -8
11 -10 18 -13 200 -77 117 -42 192 -70 295 -110 188 -73 330 -129 355 -140 17
-7 86 -36 155 -65 69 -28 141 -59 160 -67 19 -9 53 -23 75 -33 68 -30 107 -47
190 -86 44 -20 85 -37 92 -37 7 0 10 -3 8 -7 -4 -6 -880 -5 -880 0 0 1 -37 2
-83 3 -45 1 -82 -2 -82 -6 0 -5 -5 -5 -12 -1 -6 4 -151 9 -322 10 -171 1 -367
3 -436 4 -69 1 -129 1 -135 0 -5 -1 -12 -1 -15 0 -3 1 -143 3 -311 5 -169 1
-312 6 -318 9 -6 4 -11 2 -11 -4 0 -8 -6 -8 -20 0 -14 8 -20 8 -20 0 0 -6 -5
-8 -12 -4 -7 4 -24 8 -38 8 -14 0 -31 -4 -38 -8 -7 -4 -12 -4 -12 1 0 4 -102
9 -228 10 -484 3 -879 10 -889 16 -6 4 -13 4 -17 0 -7 -8 -116 -10 -116 -3 0
3 -29 5 -65 5 -36 0 -65 -4 -65 -8 0 -5 -6 -5 -12 -1 -7 5 -103 9 -213 11
-203 3 -479 8 -950 18 -143 3 -340 7 -437 9 -97 2 -181 7 -187 10 -5 4 -12 2
-16 -4 -4 -6 -10 -8 -15 -5 -5 3 -92 8 -192 11 -101 2 -247 6 -326 8 -79 2
-146 6 -149 9 -3 3 -15 2 -28 -3 -13 -5 -25 -6 -28 -3 -6 6 -111 11 -367 17
-85 3 -155 5 -155 6 0 1 -29 3 -65 5 -160 7 -274 16 -299 21 -48 12 -9 -13 49
-31 158 -47 447 -113 575 -131 11 -1 21 -3 23 -4 1 -2 11 -4 22 -5 11 -1 21
-3 23 -5 1 -1 16 -3 32 -5 17 -2 41 -6 55 -9 14 -3 48 -8 75 -12 61 -7 79 -10
130 -18 22 -4 58 -9 80 -11 22 -3 51 -7 65 -10 14 -3 50 -7 80 -10 30 -3 71
-8 90 -11 19 -2 58 -7 85 -10 28 -3 60 -7 73 -9 23 -4 122 -14 190 -20 20 -2
37 -4 37 -5 0 -1 20 -3 45 -5 25 -1 77 -6 115 -9 133 -13 284 -26 490 -41 33
-3 87 -7 120 -9 67 -6 226 -16 325 -21 36 -2 115 -6 175 -10 135 -8 249 -13
425 -21 74 -3 167 -7 205 -9 39 -1 171 -6 295 -9 124 -4 290 -9 370 -11 173
-5 928 -17 985 -16 53 2 33 2 263 0 111 -1 205 1 208 4 3 3 18 2 32 -2 15 -3
41 -5 57 -4 17 2 44 3 60 2 42 -1 57 -1 80 0 11 1 71 1 133 0 62 -1 115 1 119
4 3 4 13 2 23 -3 10 -5 21 -6 24 -2 10 10 1965 11 2001 0 19 -5 31 -4 33 2 2
6 8 7 14 4 5 -3 69 -8 141 -10 441 -13 661 -20 827 -30 58 -3 141 -7 185 -9
83 -3 261 -13 375 -20 36 -2 108 -7 160 -10 52 -3 115 -7 140 -9 25 -2 88 -7
140 -11 52 -4 118 -9 145 -11 28 -2 88 -6 135 -9 47 -2 105 -7 130 -10 25 -2
79 -7 120 -10 69 -5 96 -7 220 -20 106 -10 164 -15 218 -20 31 -3 82 -8 112
-11 97 -11 114 -12 180 -18 36 -3 81 -8 100 -11 19 -2 64 -7 100 -10 36 -3 76
-8 90 -10 14 -2 48 -6 75 -10 28 -3 66 -8 85 -10 19 -3 60 -8 90 -10 57 -6 90
-10 150 -19 19 -3 59 -8 89 -10 29 -3 68 -8 85 -11 17 -3 49 -7 71 -10 61 -7
116 -15 155 -21 19 -3 55 -7 80 -9 45 -5 84 -10 129 -19 13 -3 41 -6 62 -8 22
-1 39 -4 39 -7 0 -6 47 -11 99 -11 12 0 28 -3 33 -7 6 -3 25 -7 42 -9 17 -1
45 -5 61 -8 17 -3 50 -8 75 -11 25 -4 54 -8 65 -10 11 -2 43 -7 70 -11 57 -8
80 -12 80 -14 0 -1 20 -4 44 -6 23 -2 52 -9 62 -15 13 -7 19 -6 19 1 0 6 5 8
12 4 10 -7 25 -10 88 -18 14 -2 36 -6 50 -9 14 -4 39 -9 55 -11 17 -3 44 -7
60 -10 99 -19 113 -21 170 -30 11 -2 20 -4 20 -5 0 -2 16 -4 36 -6 20 -1 45
-5 55 -9 10 -3 36 -8 58 -12 37 -5 48 -8 99 -19 12 -3 36 -7 52 -9 17 -3 37
-7 45 -10 8 -3 32 -8 53 -11 21 -3 72 -12 114 -21 41 -8 87 -17 101 -19 15 -3
45 -9 67 -14 22 -6 56 -13 75 -16 19 -4 40 -8 45 -9 36 -9 78 -19 222 -51 89
-20 172 -38 183 -40 12 -2 29 -6 38 -9 9 -3 32 -8 51 -11 19 -3 37 -8 41 -10
3 -2 17 -6 31 -8 13 -3 44 -10 69 -17 25 -7 52 -13 60 -15 8 -2 69 -17 135
-35 66 -17 128 -33 139 -35 10 -3 20 -6 22 -8 2 -2 -5923 -4 -13166 -4 -7244
0 -13170 3 -13170 7 0 4 51 40 113 81 61 41 114 76 117 79 3 3 21 14 40 24 19
11 58 34 85 51 140 91 441 246 530 275 22 7 45 15 50 19 6 3 15 6 20 7 6 1 53
14 105 29 91 26 114 30 225 40 139 12 166 15 245 20 47 4 105 8 130 10 25 2
88 6 140 9 52 3 127 8 165 11 39 3 104 8 145 10 109 6 255 15 330 20 36 3 110
7 165 10 55 3 129 8 165 10 36 3 108 7 160 10 258 13 299 16 355 20 32 3 111
7 175 11 63 3 140 7 170 9 30 1 107 6 170 9 63 4 143 9 176 11 34 2 117 6 185
10 68 3 149 8 179 10 30 2 114 6 185 9 72 4 159 9 195 11 36 3 119 7 185 11
66 3 147 7 180 9 317 18 499 27 518 27 36 -1 6 15 -40 21 -26 4 -61 9 -78 12
-16 3 -43 7 -60 10 -16 3 -40 7 -51 9 -12 2 -37 7 -55 10 -66 11 -144 25 -169
31 -14 3 -43 7 -65 10 -22 3 -47 7 -55 10 -8 2 -31 6 -50 9 -19 3 -44 7 -55
10 -11 2 -63 11 -115 20 -121 21 -144 25 -177 32 -16 3 -43 7 -61 9 -18 2 -41
6 -50 9 -9 3 -35 8 -57 12 -22 3 -74 12 -115 19 -41 7 -78 11 -82 8 -5 -2 -8
0 -8 6 0 5 -11 8 -25 6 -14 -1 -28 1 -30 6 -3 4 -14 6 -25 4 -11 -2 -22 0 -25
4 -2 5 -16 7 -30 6 -14 -2 -25 0 -25 3 0 4 -10 7 -22 8 -13 0 -39 4 -58 8 -43
8 -72 13 -129 20 -24 4 -47 9 -52 12 -5 3 -28 8 -52 11 -23 2 -51 6 -62 8 -11
2 -24 4 -30 4 -9 1 22 24 35 26 3 1 24 11 47 23 24 12 43 19 43 15 0 -5 4 -2
9 5 4 7 14 14 22 16 8 1 43 16 79 33 119 57 222 103 226 103 3 0 26 10 52 21
101 46 129 58 192 83 36 15 74 31 85 36 38 17 210 88 305 125 52 20 99 41 105
46 5 5 19 9 32 9 13 0 23 4 23 10 0 5 3 9 8 8 8 -3 101 31 117 42 6 4 22 10
36 13 14 4 43 14 65 24 21 9 41 17 44 18 3 0 19 5 35 12 39 15 65 23 68 21 1
0 21 9 44 21 23 11 47 21 52 21 5 0 20 4 33 9 13 5 28 10 33 11 6 1 26 10 45
20 19 10 38 18 42 19 50 9 68 15 68 24 0 6 3 8 6 4 3 -3 36 6 72 20 37 14 73
26 80 26 6 0 12 5 12 10 0 6 3 8 6 4 5 -5 90 22 164 51 8 3 20 6 25 7 6 0 19
6 30 12 11 6 23 12 27 12 10 2 5 0 173 54 232 75 550 175 583 183 39 9 168 46
182 51 27 11 454 129 500 138 8 2 61 15 118 30 56 14 113 28 127 31 13 2 35 8
47 13 13 5 25 9 28 9 57 8 92 16 96 23 3 5 9 7 13 4 5 -2 23 0 41 5 18 5 51
12 74 16 22 3 44 8 48 10 8 5 27 10 83 20 17 2 46 9 65 14 19 5 46 11 60 14
14 2 59 11 100 20 41 8 86 17 100 20 14 3 35 7 46 10 12 2 39 7 60 10 22 4 46
8 54 11 8 2 31 6 50 9 19 3 46 8 60 11 14 3 41 8 60 11 82 13 96 15 125 19 17
2 40 6 51 9 21 4 39 7 159 26 60 9 138 20 185 26 27 3 100 13 137 19 13 2 27
6 33 10 5 3 10 1 10 -5 0 -7 6 -8 18 -2 17 9 72 16 130 16 17 1 32 3 32 6 0 3
17 6 38 7 38 1 104 7 202 17 115 12 314 25 453 31 60 2 112 6 115 10 4 3 8 1
10 -4 2 -6 9 -8 15 -4z"/>
<path d="M10840 17143 c0 -4 -82 -9 -183 -10 -164 -1 -301 -7 -427 -17 -25 -2
-79 -7 -120 -10 -74 -6 -132 -14 -137 -20 -2 -2 41 -2 94 -2 54 1 112 -1 128
-4 17 -4 42 -3 57 1 15 4 30 4 33 0 4 -3 30 -7 58 -8 69 -2 249 -12 312 -18
28 -2 88 -7 135 -10 47 -3 108 -8 135 -10 28 -2 82 -7 120 -10 39 -4 81 -8 95
-10 14 -2 59 -7 100 -10 41 -3 86 -7 100 -9 14 -3 55 -7 92 -11 37 -3 77 -8
90 -10 13 -2 52 -6 88 -9 36 -4 75 -8 85 -10 11 -2 47 -7 80 -11 57 -6 75 -8
163 -20 20 -3 62 -7 92 -11 30 -3 57 -7 60 -9 3 -2 33 -6 65 -10 33 -3 67 -8
75 -10 8 -2 38 -7 65 -10 28 -3 75 -10 105 -15 118 -19 136 -22 160 -25 14 -1
39 -5 55 -8 17 -4 48 -9 70 -12 23 -3 52 -8 65 -11 14 -2 36 -6 50 -8 14 -2
54 -9 90 -16 36 -7 74 -13 85 -15 11 -1 72 -12 135 -24 63 -11 129 -23 145
-26 17 -3 50 -10 75 -15 25 -5 59 -12 75 -15 33 -5 54 -9 130 -25 28 -6 59
-12 70 -14 11 -3 56 -12 100 -21 44 -10 90 -19 102 -20 11 -2 30 -6 42 -10 11
-3 33 -9 48 -11 24 -5 85 -18 133 -29 35 -9 197 -46 215 -49 11 -3 31 -7 45
-10 14 -3 35 -8 48 -11 12 -3 31 -7 42 -10 11 -3 29 -7 41 -10 11 -2 28 -6 37
-9 9 -3 28 -7 42 -10 14 -3 52 -12 84 -21 33 -8 69 -17 80 -20 12 -2 21 -4 21
-5 0 -1 7 -3 50 -14 11 -2 40 -9 65 -15 25 -7 53 -13 63 -16 10 -2 28 -7 40
-11 12 -4 29 -9 37 -10 18 -3 43 -9 88 -23 17 -5 32 -8 32 -5 0 2 13 -2 30
-11 16 -8 33 -14 37 -13 4 1 28 -5 53 -12 25 -7 50 -14 55 -16 6 -1 30 -7 55
-15 50 -14 62 -17 88 -23 9 -3 17 -5 17 -6 0 -1 8 -3 18 -5 9 -2 56 -15 105
-30 103 -31 115 -35 139 -40 10 -2 31 -8 46 -14 51 -20 53 -11 2 10 -27 12
-61 26 -75 32 -14 6 -30 11 -35 12 -11 3 -133 49 -170 65 -34 15 -100 34 -107
32 -5 -1 -8 3 -8 8 0 6 -10 10 -23 10 -13 0 -27 4 -33 10 -5 5 -18 11 -29 13
-25 5 -55 16 -77 28 -10 5 -26 9 -36 9 -9 0 -27 7 -38 15 -12 8 -24 12 -27 9
-3 -3 -19 2 -36 10 -17 9 -34 17 -38 17 -10 2 -9 2 -148 45 -66 21 -122 39
-125 39 -27 7 -67 19 -75 24 -11 6 -13 6 -59 16 -16 3 -37 10 -46 15 -10 5
-20 6 -24 3 -3 -3 -6 -2 -6 3 0 5 -8 10 -17 11 -10 1 -74 18 -143 38 -69 20
-132 39 -140 41 -8 2 -31 8 -50 13 -135 36 -237 63 -250 67 -33 8 -106 26
-122 30 -10 2 -26 6 -35 9 -39 10 -344 82 -388 91 -11 2 -29 6 -40 8 -159 35
-520 104 -585 112 -25 3 -47 9 -50 12 -3 4 -32 9 -65 10 -33 2 -65 8 -71 13
-6 5 -13 7 -16 4 -2 -3 -29 -1 -59 5 -74 13 -128 21 -164 25 -16 2 -52 6 -80
9 -27 4 -66 9 -85 11 -19 2 -51 6 -70 9 -33 5 -112 14 -190 21 -370 35 -492
42 -802 49 -114 2 -212 7 -217 11 -6 3 -11 3 -11 -2z"/>
<path d="M15668 13555 c-1 -2 -25 -6 -53 -9 -27 -3 -61 -8 -75 -11 -14 -3 -37
-7 -51 -10 -93 -17 -294 -100 -376 -155 -24 -17 -48 -30 -54 -30 -5 0 -9 -4
-9 -8 0 -4 -14 -16 -32 -26 -56 -34 -212 -199 -270 -286 -184 -280 -249 -601
-187 -920 29 -144 119 -358 191 -455 84 -111 180 -214 240 -256 18 -13 35 -26
38 -29 5 -6 71 -50 115 -77 29 -18 119 -60 126 -59 3 1 12 -4 20 -10 14 -12
133 -52 179 -60 14 -3 33 -7 42 -10 23 -7 56 -13 108 -20 49 -7 326 -8 350 -1
8 2 38 8 65 12 59 10 49 8 105 24 271 73 483 214 668 446 27 34 72 105 72 114
0 6 5 11 12 11 6 0 8 3 5 6 -4 4 2 19 11 33 33 47 90 197 107 281 2 8 9 35 15
60 17 68 21 321 5 416 -18 111 -59 242 -107 338 -35 73 -94 173 -108 186 -3 3
-18 23 -35 45 -61 82 -254 255 -284 255 -6 0 -11 5 -11 10 0 6 -6 10 -14 10
-8 0 -16 3 -18 8 -5 12 -117 67 -193 95 -165 60 -263 78 -447 82 -80 2 -148 2
-150 0z m252 -459 c56 -9 73 -14 101 -24 15 -6 30 -8 33 -5 3 4 6 2 6 -4 0 -5
17 -15 38 -21 97 -29 258 -166 325 -278 32 -53 102 -213 97 -222 -1 -1 3 -26
9 -55 10 -53 11 -64 12 -152 1 -46 -5 -104 -14 -165 -5 -32 -40 -133 -64 -185
-42 -92 -136 -205 -240 -286 -33 -26 -163 -86 -223 -103 -63 -18 -193 -35
-230 -30 -14 2 -45 5 -70 8 -47 4 -95 14 -120 23 -8 3 -20 7 -27 9 -7 1 -27 9
-44 18 -18 9 -38 16 -45 16 -7 0 -14 3 -16 8 -1 4 -20 16 -41 26 -70 36 -168
132 -230 224 -43 66 -95 180 -103 231 -3 14 -7 33 -9 41 -18 62 -23 191 -10
279 30 211 135 393 295 511 101 74 212 122 319 136 25 3 47 7 49 8 4 5 167 -2
202 -8z"/>
<path d="M18302 13535 c-62 -13 -118 -25 -125 -28 -7 -2 -15 -5 -19 -6 -31 -5
-158 -60 -228 -98 -138 -74 -275 -186 -365 -298 -47 -58 -105 -143 -105 -154
0 -5 -3 -11 -8 -13 -10 -4 -95 -192 -93 -205 0 -2 -7 -22 -15 -45 -9 -24 -18
-59 -21 -78 -2 -19 -7 -42 -10 -50 -23 -61 -21 -363 2 -460 3 -14 8 -36 11
-50 47 -235 221 -506 425 -662 106 -80 251 -160 347 -190 23 -7 42 -15 42 -18
0 -3 14 -7 31 -8 17 -1 39 -7 49 -12 10 -5 33 -11 51 -14 19 -2 45 -7 59 -10
76 -17 255 -22 365 -11 285 30 576 167 773 365 l64 63 -161 160 -160 160 -66
-61 c-70 -66 -162 -132 -182 -132 -7 0 -13 -4 -13 -9 0 -6 -71 -40 -100 -47
-3 0 -13 -4 -22 -8 -9 -4 -25 -9 -35 -11 -10 -2 -18 -4 -18 -5 0 -9 -148 -25
-220 -23 -62 1 -150 9 -150 13 0 1 -9 3 -20 5 -32 4 -115 35 -170 63 -170 85
-308 241 -367 412 -38 108 -41 131 -41 275 0 154 14 219 78 350 178 364 619
512 1005 338 104 -47 174 -97 268 -192 52 -53 53 -53 74 -35 11 11 86 83 165
161 123 121 143 145 134 161 -15 29 -139 142 -211 193 -63 45 -151 94 -159 90
-2 -2 -7 1 -10 6 -7 11 -108 53 -127 53 -7 0 -14 4 -16 8 -3 9 -140 48 -202
57 -21 4 -48 9 -60 12 -11 3 -91 6 -176 8 -129 2 -174 -1 -268 -20z"/>
<path d="M60 12338 l0 -1188 60 0 c33 -1 116 -1 185 -1 69 0 153 0 188 1 l63
0 0 452 0 453 263 0 c144 0 266 -2 269 -5 4 -3 51 -93 106 -200 202 -399 287
-565 296 -575 4 -5 9 -13 9 -18 0 -4 12 -30 26 -57 23 -46 28 -50 63 -50 152
-2 506 1 509 4 2 2 -4 19 -15 37 -10 19 -36 68 -58 109 -21 41 -41 77 -44 80
-5 5 -55 98 -113 210 -16 30 -38 73 -51 95 -12 22 -42 76 -65 120 -24 44 -60
109 -79 145 -20 36 -48 89 -63 119 l-27 54 56 27 c172 82 324 260 377 442 21
73 37 226 24 233 -3 3 -5 17 -3 32 8 69 -69 287 -126 357 -31 38 -116 122
-146 144 -109 80 -262 139 -409 158 -86 11 -605 10 -605 -1 0 -7 -3 -7 -8 0
-4 7 -129 10 -344 10 l-338 0 0 -1187z m760 757 c25 0 51 4 58 8 6 5 12 5 12
0 0 -10 91 -10 108 0 6 5 12 5 12 0 0 -10 91 -10 108 0 6 5 12 5 12 0 0 -4 26
-8 57 -7 106 2 194 -30 259 -93 66 -65 89 -122 89 -222 0 -74 -4 -93 -27 -138
-15 -28 -38 -62 -52 -76 -24 -25 -92 -70 -111 -74 -5 -1 -32 -8 -60 -15 -38
-11 -131 -13 -382 -12 -183 1 -336 2 -340 3 -5 0 -8 142 -8 313 l1 313 96 0
c53 0 100 4 104 8 4 4 10 4 13 0 3 -5 26 -8 51 -8z"/>
<path d="M3654 13521 c-2 -2 -4 -340 -5 -750 -1 -722 -1 -776 -12 -832 -8 -41
-48 -130 -80 -179 -84 -126 -225 -200 -382 -201 -78 0 -205 25 -205 41 0 4
-12 10 -27 13 -38 8 -135 97 -182 166 -47 68 -91 158 -91 183 0 24 -14 23 -91
-8 -35 -14 -68 -27 -74 -28 -5 -2 -17 -6 -25 -9 -8 -4 -42 -16 -75 -28 -33
-12 -64 -25 -70 -29 -5 -3 -36 -15 -67 -25 -42 -14 -58 -24 -58 -37 0 -31 75
-193 123 -264 55 -83 153 -186 223 -237 115 -82 306 -158 443 -174 76 -9 241
-8 321 1 436 51 725 320 806 753 17 94 26 433 10 433 -5 0 -5 5 1 13 6 9 10
1092 4 1187 -1 13 -35 15 -242 15 -132 0 -242 -2 -245 -4z m390 -1199 c3 -5
-1 -9 -9 -9 -8 0 -12 4 -9 9 3 4 7 8 9 8 2 0 6 -4 9 -8z"/>
<path d="M4549 13521 c-14 -5 -15 -124 -15 -1188 l0 -1182 102 -3 c57 -2 159
-2 228 0 l126 3 0 861 c0 474 1 862 3 864 1 1 28 -48 60 -109 32 -62 92 -177
133 -257 42 -80 110 -212 152 -295 42 -82 79 -151 84 -153 4 -2 8 -11 8 -21 0
-9 4 -21 9 -26 5 -6 38 -66 74 -135 35 -69 91 -177 124 -240 33 -63 84 -161
113 -218 29 -57 56 -99 60 -95 4 4 32 55 61 113 30 58 57 108 62 111 5 3 8 8
7 10 -3 5 33 82 41 89 3 3 19 32 34 65 16 33 32 62 35 65 4 4 78 145 179 345
20 39 38 72 41 75 8 7 49 93 50 105 1 6 5 15 10 20 15 18 177 325 252 477 16
31 32 59 36 62 5 3 8 -378 8 -846 -1 -467 2 -854 5 -859 6 -11 447 -15 457 -5
10 11 8 2357 -3 2364 -17 11 -250 8 -257 -3 -5 -6 -8 -6 -8 0 0 13 -346 13
-359 0 -5 -6 -41 -73 -80 -150 -39 -77 -74 -145 -78 -150 -4 -6 -46 -87 -92
-180 -46 -94 -91 -178 -99 -187 -8 -10 -12 -18 -8 -18 5 0 -30 -71 -63 -125
-3 -5 -6 -12 -7 -15 -3 -15 -20 -48 -36 -72 -11 -16 -16 -28 -12 -28 3 0 1 -6
-5 -14 -14 -16 -84 -159 -81 -165 1 -2 -3 -7 -8 -10 -5 -3 -25 -39 -44 -79
l-34 -74 -25 51 c-13 28 -27 51 -31 51 -5 0 -8 6 -8 14 0 8 -38 87 -85 177
-47 90 -88 171 -91 179 -3 8 -9 22 -14 30 -4 8 -41 80 -82 160 -40 80 -77 148
-81 151 -5 3 -8 9 -8 13 1 6 -38 85 -156 315 l-69 135 -287 0 c-158 1 -287 -3
-287 -8 0 -5 -6 -4 -12 2 -7 5 -20 7 -29 3z"/>
<path d="M8473 13490 c-9 -19 -16 -38 -15 -42 1 -5 -2 -8 -6 -8 -5 0 -9 -6 -9
-12 0 -7 -10 -34 -21 -60 -12 -26 -22 -54 -22 -62 0 -8 -5 -16 -12 -18 -6 -2
-12 -13 -13 -24 -1 -10 -11 -39 -22 -64 -11 -25 -28 -67 -38 -95 -11 -27 -24
-53 -29 -57 -6 -4 -7 -8 -3 -8 4 0 2 -10 -5 -22 -7 -13 -13 -25 -13 -28 -1 -3
-7 -17 -13 -32 -6 -16 -57 -139 -112 -275 -56 -137 -108 -262 -116 -280 -8
-17 -14 -34 -14 -37 0 -3 -8 -25 -19 -49 -10 -23 -32 -76 -49 -117 -17 -41
-39 -93 -48 -115 -10 -22 -18 -42 -19 -45 -1 -3 -6 -16 -12 -30 -6 -14 -21
-50 -32 -80 -12 -30 -29 -71 -37 -90 -9 -19 -19 -44 -24 -55 -4 -11 -16 -37
-25 -59 -9 -21 -18 -44 -20 -50 -1 -6 -9 -27 -17 -46 -27 -62 -31 -75 -30 -82
1 -5 -2 -8 -6 -8 -5 0 -9 -6 -9 -12 0 -7 -29 -78 -63 -158 -34 -80 -63 -154
-66 -164 -2 -11 -8 -24 -14 -30 -5 -5 -10 -14 -10 -18 0 -5 115 -7 256 -6 216
3 258 5 265 18 5 8 29 69 54 135 25 66 50 129 55 140 4 11 34 88 66 170 32 83
60 152 61 155 5 6 963 6 973 0 4 -3 22 -43 40 -90 17 -47 35 -94 40 -105 12
-31 35 -89 36 -95 0 -3 5 -16 11 -30 6 -14 19 -45 28 -70 9 -25 21 -54 25 -65
5 -11 21 -53 36 -92 l28 -73 263 0 c224 0 263 2 263 15 0 13 -6 30 -45 120
-21 49 -28 70 -27 78 1 4 -2 7 -8 7 -6 0 -9 3 -8 8 1 4 -4 21 -11 37 -14 37
-40 100 -56 140 -7 17 -36 89 -65 160 -28 72 -58 143 -66 159 -8 16 -14 33
-14 38 0 4 -9 27 -19 51 -11 23 -65 157 -121 297 -56 140 -113 279 -126 308
-13 29 -24 54 -24 57 0 2 -5 16 -12 32 -6 15 -12 30 -13 33 -2 7 -24 61 -32
80 -3 8 -7 17 -8 20 -1 3 -9 22 -18 44 -9 21 -17 40 -17 42 0 2 -8 23 -19 47
-10 23 -24 56 -31 72 -7 17 -15 39 -17 49 -2 11 -7 24 -12 30 -7 9 -54 122
-57 136 -2 11 -26 68 -68 162 -9 20 -16 40 -16 45 -1 4 -11 30 -24 57 l-23 50
-151 1 c-97 0 -152 -3 -152 -10 0 -7 -3 -7 -8 0 -4 6 -60 10 -129 10 l-123 1
-17 -36z m364 -655 c36 -93 80 -208 99 -255 77 -197 153 -404 150 -408 -3 -2
-535 -5 -643 -2 -20 0 -20 2 -10 33 7 17 14 34 17 37 3 3 6 10 7 15 1 6 45
120 98 255 53 135 101 260 107 279 5 19 16 44 23 55 7 12 18 39 25 61 7 22 17
46 23 53 5 6 6 12 3 12 -4 0 1 14 11 30 10 18 19 25 22 18 2 -7 33 -89 68
-183z"/>
<path d="M10082 13510 c1 -8 -1 -20 -5 -27 -4 -6 -3 -14 2 -18 7 -4 7 -15 1
-30 -6 -16 -6 -25 1 -25 6 0 6 -6 0 -18 -7 -13 -7 -22 0 -29 8 -8 8 -13 0 -17
-7 -5 -7 -15 0 -34 11 -29 11 -29 -2 -54 -7 -12 -6 -18 1 -18 8 0 8 -6 0 -20
-8 -14 -8 -20 0 -20 8 0 8 -6 0 -20 -8 -14 -8 -20 0 -20 6 0 8 -5 5 -11 -10
-15 -12 -80 -3 -85 3 -2 3 -17 -1 -32 -5 -15 -4 -37 0 -50 5 -13 5 -22 -2 -22
-6 0 -6 -7 1 -20 7 -13 7 -20 1 -20 -7 0 -7 -8 -2 -23 5 -13 5 -30 1 -37 -5
-8 -5 -21 0 -29 4 -9 9 -18 11 -21 1 -3 -3 -15 -10 -27 -8 -16 -8 -23 -1 -23
8 0 8 -6 0 -20 -8 -14 -8 -20 0 -20 8 0 8 -6 0 -20 -8 -14 -8 -20 0 -20 6 0 8
-5 4 -11 -10 -17 -11 -51 -2 -76 4 -14 4 -23 -2 -23 -6 0 -6 -9 0 -25 6 -16 6
-25 -1 -25 -6 0 -6 -6 0 -18 6 -11 6 -24 0 -35 -7 -11 -6 -17 1 -17 7 0 8 -6
1 -18 -7 -13 -7 -22 0 -29 8 -8 8 -13 0 -17 -6 -4 -7 -15 -2 -29 11 -29 11
-38 0 -59 -7 -12 -6 -18 1 -18 8 0 8 -6 0 -20 -8 -14 -8 -20 0 -20 8 0 8 -6 0
-20 -8 -14 -8 -20 0 -20 7 0 8 -7 3 -17 -5 -10 -7 -29 -6 -43 1 -14 5 -52 7
-86 3 -33 8 -74 11 -90 3 -16 8 -42 10 -59 2 -16 9 -43 15 -60 6 -16 11 -30
10 -30 -1 0 2 -9 5 -20 46 -145 132 -291 230 -391 33 -34 159 -134 168 -134 4
0 28 -12 54 -28 26 -15 66 -33 88 -40 22 -7 49 -17 60 -22 29 -12 94 -28 140
-36 22 -3 43 -8 46 -9 8 -5 157 -17 204 -17 57 1 185 11 220 17 276 52 466
159 623 350 57 68 152 263 166 337 3 13 5 24 7 26 1 1 2 5 3 10 3 11 18 83 24
112 2 14 6 135 8 270 2 135 5 250 5 255 1 6 0 15 -1 20 -3 12 -2 211 1 223 1
4 0 12 -1 17 -3 12 -2 211 1 223 1 4 0 12 -1 17 -5 22 -2 216 3 221 3 3 3 13
0 21 -3 8 -6 76 -7 151 l-1 136 -238 1 c-132 0 -241 -4 -244 -9 -3 -5 -7 -333
-8 -730 -1 -397 -5 -733 -9 -748 -3 -16 -8 -38 -10 -50 -10 -55 -68 -177 -102
-213 -13 -14 -24 -28 -24 -31 0 -6 -39 -44 -46 -44 -4 0 -14 -9 -24 -20 -23
-26 -163 -90 -214 -97 -72 -9 -220 -9 -251 0 -16 6 -37 12 -45 15 -8 3 -21 6
-28 8 -18 4 -104 46 -122 60 -68 55 -87 74 -122 122 -42 56 -81 143 -100 222
-14 57 -16 200 -17 925 l-1 590 -245 0 c-213 0 -245 -2 -243 -15z"/>
<path d="M12422 13520 c-4 -3 -7 -101 -7 -219 l1 -214 397 0 c279 0 397 -3
398 -11 1 -6 2 -441 3 -966 l2 -955 247 -3 248 -2 -1 922 c-1 508 -1 944 -1
969 l1 46 373 1 c204 0 383 1 397 1 l25 1 -1 213 c-1 116 -2 214 -3 217 -2 10
-311 5 -311 -5 0 -7 -3 -7 -8 0 -10 14 -944 14 -954 0 -5 -7 -8 -7 -8 0 0 14
-622 14 -632 0 -5 -6 -8 -6 -8 0 0 10 -146 15 -158 5z"/>
<path d="M20558 13508 c-8 -13 -20 -39 -27 -58 -7 -19 -19 -48 -26 -65 -7 -16
-36 -88 -65 -160 -29 -71 -64 -153 -76 -182 -13 -28 -24 -58 -24 -65 0 -8 -4
-18 -8 -24 -9 -10 -11 -14 -128 -304 -42 -102 -81 -198 -89 -215 -7 -16 -23
-55 -35 -85 -12 -30 -28 -69 -36 -85 -7 -17 -27 -66 -45 -110 -17 -44 -42
-104 -55 -133 -13 -29 -24 -57 -24 -62 0 -6 -4 -18 -10 -28 -23 -43 -77 -181
-72 -186 3 -3 0 -6 -6 -6 -7 0 -12 -7 -12 -14 0 -8 -16 -49 -35 -91 -19 -41
-34 -78 -35 -80 -1 -14 -6 -28 -25 -70 -20 -46 -32 -77 -34 -88 0 -4 -10 -24
-21 -44 -11 -21 -20 -41 -20 -44 0 -4 -8 -24 -17 -45 -9 -22 -17 -41 -18 -44
-1 -3 -7 -18 -13 -33 -7 -16 -12 -30 -12 -33 0 -2 115 -3 257 -2 l256 3 16 45
c9 25 18 47 21 50 3 3 14 30 24 60 10 30 22 60 26 65 4 6 13 28 20 50 15 48
130 338 136 344 10 10 966 6 974 -4 4 -5 49 -118 100 -250 50 -132 97 -253
104 -270 7 -16 19 -45 26 -62 l12 -33 264 0 c145 0 264 4 264 9 0 12 -42 114
-52 125 -4 6 -8 15 -8 22 0 6 -8 29 -17 50 -9 22 -17 41 -18 44 -1 3 -6 16
-12 30 -35 81 -52 130 -45 130 4 0 2 4 -4 8 -7 4 -49 99 -94 212 -45 113 -88
219 -95 235 -7 17 -25 62 -40 100 -15 39 -36 89 -46 112 -10 23 -19 45 -19 48
0 7 -100 253 -125 310 -8 17 -28 66 -45 110 -18 44 -38 94 -45 110 -7 17 -22
53 -34 82 -11 28 -26 64 -33 80 -6 15 -12 30 -13 33 -8 24 -40 103 -66 165
-15 36 -30 80 -29 84 1 2 -3 7 -10 11 -6 4 -12 17 -13 28 -1 12 -5 22 -9 22
-4 0 -8 6 -8 14 0 12 -19 60 -56 143 -8 17 -14 36 -14 42 0 13 13 13 -298 14
-162 1 -252 -2 -252 -8 0 -5 -4 -4 -9 3 -6 10 -11 8 -23 -10z m292 -504 c0 -8
4 -22 10 -32 9 -15 28 -64 106 -272 14 -36 29 -74 34 -85 4 -11 13 -36 20 -55
7 -19 21 -54 31 -77 11 -24 19 -49 19 -57 0 -8 5 -18 10 -21 6 -3 10 -16 10
-29 0 -12 4 -26 9 -32 5 -5 19 -38 32 -74 12 -36 27 -71 32 -78 5 -7 8 -15 5
-17 -5 -6 -658 -9 -663 -3 -4 4 44 131 180 473 13 33 35 92 50 130 14 39 33
82 41 98 8 15 12 27 8 27 -3 0 -2 6 3 13 6 6 18 35 28 64 17 48 35 62 35 27z"/>
<path d="M22295 13505 c-2 -11 -3 -544 -2 -1185 l2 -1165 245 0 245 0 0 450 0
450 266 3 265 2 99 -192 c207 -406 267 -523 277 -535 6 -7 7 -13 3 -13 -4 0
-2 -6 4 -14 6 -7 27 -46 46 -85 l35 -71 275 0 c151 0 275 3 275 6 0 3 -16 34
-36 70 -19 35 -35 67 -35 71 0 4 -6 15 -13 23 -7 8 -42 69 -76 135 -81 153
-84 159 -90 165 -3 3 -17 30 -33 60 -15 30 -45 89 -68 130 -22 41 -55 102 -72
135 -17 33 -36 63 -42 67 -5 4 -6 8 -1 8 5 0 4 6 -2 13 -15 18 -53 89 -50 91
2 2 35 20 73 40 103 56 161 105 241 203 44 54 110 178 120 227 20 93 25 130
25 193 1 76 -13 157 -38 233 -75 227 -256 394 -508 466 -115 33 -167 36 -722
37 -323 1 -493 -1 -493 -8 0 -7 -3 -7 -8 0 -4 6 -51 10 -105 10 -90 0 -98 -1
-102 -20z m645 -410 c25 0 51 4 58 8 6 5 12 5 12 0 0 -10 91 -10 108 0 6 5 12
5 12 0 0 -10 91 -10 108 0 6 5 12 5 12 0 0 -10 91 -10 108 0 6 5 12 5 12 0 0
-4 33 -9 73 -10 43 -1 88 -9 112 -19 22 -10 42 -18 45 -19 12 -2 90 -58 90
-64 0 -4 8 -16 18 -27 16 -17 31 -44 37 -66 2 -5 4 -10 5 -13 1 -3 3 -8 4 -12
1 -5 4 -12 7 -18 9 -14 4 -133 -6 -170 -18 -65 -74 -133 -136 -166 -24 -13
-46 -26 -49 -29 -3 -3 -10 -6 -17 -7 -7 -2 -29 -6 -50 -11 -21 -5 -191 -8
-378 -8 l-340 1 0 315 0 315 42 0 c23 0 45 4 49 8 4 4 10 4 13 0 3 -5 26 -8
51 -8z"/>
<path d="M24593 13517 c-3 -5 -7 -2220 -4 -2345 l1 -22 918 2 917 3 1 208 c0
116 -4 211 -9 214 -5 3 -307 6 -670 7 l-662 1 -1 278 -1 277 437 0 438 0 4 23
c2 12 1 36 -2 52 -4 17 -3 37 1 45 4 8 4 34 -1 58 -4 23 -4 45 1 48 4 2 6 11
2 19 -3 8 -6 50 -7 93 l-1 77 -430 1 c-236 1 -433 2 -436 3 -3 0 -6 120 -6
266 l0 265 56 1 c31 0 329 1 663 1 l607 1 3 141 c2 78 1 175 -2 216 l-5 75
-185 0 c-117 1 -188 -3 -192 -10 -5 -6 -8 -6 -8 0 0 7 -147 10 -420 10 -273 0
-420 -3 -420 -10 0 -7 -3 -7 -8 0 -8 12 -571 14 -579 2z"/>
<path d="M77 10542 c-16 -3 -17 -18 -15 -145 l3 -142 13197 0 c8792 0 13198 3
13198 10 4 84 2 266 -3 272 -7 6 -26346 11 -26380 5z"/>
<path d="M3514 9608 c-5 -7 67 -147 113 -220 13 -21 23 -40 23 -42 0 -2 22
-42 48 -88 26 -46 51 -90 55 -98 4 -8 11 -22 17 -30 9 -14 188 -319 214 -365
25 -44 161 -267 226 -370 39 -60 73 -118 76 -127 4 -10 10 -18 14 -18 4 0 13
-13 20 -30 7 -16 16 -30 21 -30 5 0 9 -5 9 -10 0 -6 23 -44 50 -85 28 -41 50
-78 50 -84 0 -5 4 -11 8 -13 5 -1 27 -32 50 -68 23 -36 45 -69 49 -75 4 -5 46
-66 92 -135 46 -69 91 -133 99 -143 8 -9 20 -26 26 -37 13 -23 51 -78 129
-185 32 -44 65 -89 73 -100 29 -42 145 -201 157 -215 7 -8 46 -60 87 -115 40
-55 79 -105 84 -111 6 -6 18 -22 26 -34 8 -12 22 -30 30 -40 8 -10 25 -31 37
-47 100 -127 270 -340 278 -348 6 -5 29 -32 50 -60 22 -27 42 -52 45 -55 3 -3
37 -43 75 -90 39 -46 82 -98 97 -115 14 -16 57 -66 95 -110 37 -44 77 -89 88
-101 23 -24 151 -166 178 -198 201 -233 855 -891 1111 -1118 27 -23 68 -61 91
-83 22 -22 72 -67 110 -100 39 -33 75 -65 80 -71 6 -6 42 -37 80 -70 39 -32
72 -62 75 -65 6 -6 289 -243 364 -304 28 -22 58 -48 68 -58 10 -9 20 -17 23
-17 3 0 15 -9 27 -19 45 -38 67 -56 94 -76 15 -11 32 -25 38 -30 13 -13 563
-423 596 -445 12 -8 32 -22 44 -31 11 -8 52 -37 91 -64 38 -27 75 -53 82 -59
6 -6 36 -26 67 -45 31 -18 56 -37 56 -42 0 -5 4 -9 10 -9 5 0 78 -45 160 -100
83 -55 153 -100 156 -100 3 0 10 -5 17 -10 38 -34 622 -390 638 -390 5 0 9 -4
9 -8 0 -4 12 -13 28 -19 15 -7 50 -25 77 -42 28 -16 70 -41 95 -54 25 -14 61
-34 80 -45 19 -11 55 -32 80 -45 45 -23 127 -68 250 -135 125 -68 738 -372
760 -377 3 0 30 -13 60 -27 30 -14 87 -40 125 -58 39 -17 88 -40 110 -50 93
-44 154 -68 159 -62 3 3 6 0 6 -6 0 -7 5 -12 10 -12 6 0 29 -9 53 -19 101 -47
236 -99 241 -94 3 4 6 1 6 -5 0 -6 17 -16 38 -23 20 -7 53 -19 72 -27 19 -9
40 -16 45 -18 6 -1 31 -10 55 -21 25 -11 59 -25 75 -31 17 -6 44 -17 60 -23
17 -7 35 -13 40 -15 6 -2 71 -26 145 -55 74 -28 151 -54 171 -56 28 -4 73 8
190 52 85 32 168 63 184 70 17 7 46 18 65 25 19 7 53 21 75 30 22 10 72 30
110 45 39 15 76 32 83 37 6 6 12 8 12 5 0 -3 21 3 48 14 26 12 63 27 82 35 19
8 47 22 62 30 15 8 31 15 35 16 12 1 42 13 115 47 37 17 95 42 128 56 33 14
91 39 128 56 37 17 90 41 117 54 118 53 407 194 535 260 30 16 57 29 60 30 12
2 363 188 470 249 25 14 52 29 60 33 8 4 72 40 143 80 70 40 131 73 136 73 5
0 11 4 13 9 2 5 10 11 18 13 8 2 17 6 20 9 3 4 66 42 140 86 201 118 671 414
715 450 6 5 33 23 60 41 79 51 87 56 101 70 8 7 14 10 14 5 0 -4 4 -3 8 3 4 5
43 35 87 65 44 30 89 62 99 72 11 9 23 17 27 17 4 0 14 6 21 13 7 6 42 32 78
57 55 38 425 312 455 337 6 5 30 24 55 44 149 117 396 315 400 320 3 3 48 41
100 84 52 43 100 83 105 89 6 6 37 33 70 60 33 28 67 57 76 65 8 9 42 39 74
66 32 28 73 64 91 80 18 17 60 55 94 85 214 191 667 634 892 871 102 107 276
294 312 335 19 22 50 56 68 76 18 19 58 64 88 98 30 35 64 73 75 85 66 74 87
99 155 180 41 49 82 98 90 108 8 11 21 25 28 33 15 16 103 123 147 179 17 21
35 43 40 49 6 6 35 43 65 81 30 39 57 72 60 75 3 3 37 46 75 95 38 50 75 97
82 105 7 8 51 67 98 130 48 63 95 126 105 140 19 25 211 288 240 330 8 11 75
107 147 213 73 106 136 197 140 202 5 6 33 48 63 95 30 47 63 94 72 104 10 11
18 23 18 27 0 4 33 57 73 118 39 62 85 133 101 159 16 26 45 72 64 102 19 30
45 71 57 90 22 35 62 100 80 132 6 10 32 55 60 100 27 46 58 99 68 118 11 19
25 42 32 50 6 8 42 69 79 135 37 66 78 138 91 160 13 22 36 63 51 90 14 28 60
109 100 182 41 73 74 136 74 140 0 4 -241 8 -535 8 -522 0 -535 -1 -548 -20
-8 -11 -30 -49 -49 -85 -20 -36 -62 -110 -93 -165 -32 -55 -66 -116 -77 -135
-63 -109 -104 -175 -110 -178 -5 -2 -8 -8 -8 -13 0 -6 -42 -77 -92 -159 -51
-83 -100 -162 -108 -177 -8 -15 -23 -36 -32 -47 -10 -11 -18 -23 -18 -27 0 -4
-36 -62 -80 -128 -44 -67 -80 -125 -80 -130 0 -5 -3 -11 -7 -13 -6 -2 -216
-309 -258 -376 -5 -9 -14 -21 -18 -26 -4 -6 -35 -49 -67 -96 -33 -47 -63 -89
-68 -95 -4 -5 -19 -26 -32 -45 -13 -19 -28 -39 -33 -45 -4 -5 -25 -35 -47 -65
-22 -30 -48 -66 -58 -79 -9 -13 -21 -29 -27 -36 -5 -6 -14 -18 -20 -27 -10
-17 -175 -233 -227 -298 -15 -19 -69 -87 -119 -150 -107 -136 -137 -173 -164
-203 -11 -12 -38 -45 -60 -72 -49 -61 -49 -62 -220 -260 -76 -88 -145 -167
-154 -176 -9 -9 -43 -47 -76 -84 -103 -115 -114 -127 -248 -270 -270 -285
-642 -649 -933 -910 -43 -38 -86 -78 -96 -88 -10 -9 -22 -17 -28 -17 -5 0 -10
-4 -10 -8 0 -5 -37 -40 -82 -78 -45 -38 -92 -78 -104 -89 -12 -11 -31 -27 -41
-35 -77 -63 -140 -117 -150 -130 -7 -8 -13 -12 -13 -8 0 4 -10 -3 -23 -15 -12
-12 -40 -35 -61 -52 -52 -40 -148 -118 -162 -130 -6 -5 -23 -19 -38 -30 -16
-11 -33 -24 -40 -30 -6 -5 -38 -30 -71 -55 -33 -25 -65 -49 -71 -55 -7 -5 -24
-19 -39 -30 -47 -34 -239 -175 -262 -193 -26 -20 -77 -55 -218 -153 -55 -38
-104 -72 -110 -77 -23 -18 -421 -278 -530 -346 -33 -20 -99 -62 -147 -92 -48
-30 -91 -54 -96 -54 -4 0 -18 -9 -30 -20 -12 -12 -22 -18 -22 -15 0 4 -12 -2
-27 -13 -16 -11 -45 -29 -65 -41 -21 -11 -55 -31 -75 -42 -108 -61 -129 -74
-145 -87 -10 -8 -18 -12 -18 -7 0 4 -6 2 -14 -4 -7 -6 -44 -27 -82 -47 -38
-20 -70 -41 -72 -45 -2 -5 -11 -9 -21 -9 -9 0 -21 -4 -26 -9 -9 -8 -71 -43
-168 -93 -12 -6 -29 -15 -37 -19 -27 -16 -574 -286 -610 -302 -19 -8 -75 -34
-123 -56 -49 -23 -90 -41 -92 -41 -2 0 -37 -16 -79 -35 -42 -20 -79 -36 -83
-37 -5 -1 -37 -15 -73 -31 -36 -16 -83 -37 -105 -47 -23 -10 -53 -22 -68 -25
-15 -4 -27 -11 -27 -16 0 -5 -3 -8 -7 -7 -9 3 -102 -32 -169 -64 -23 -10 -50
-20 -60 -23 -11 -2 -44 -15 -75 -29 -31 -13 -60 -22 -63 -19 -3 4 -6 2 -6 -4
0 -6 -10 -13 -22 -16 -13 -3 -67 -21 -120 -40 l-97 -35 -78 28 c-43 15 -89 32
-103 38 -22 9 -55 22 -70 27 -6 2 -51 20 -95 38 -16 6 -32 12 -35 12 -3 1 -23
9 -45 19 -22 10 -58 25 -80 33 -22 8 -59 24 -82 34 -24 10 -45 19 -48 19 -2 0
-34 13 -70 30 -36 16 -68 30 -70 30 -2 0 -34 14 -70 30 -36 17 -67 30 -69 30
-2 0 -35 14 -73 32 -37 17 -70 32 -73 33 -57 19 -858 409 -870 424 -3 3 -27
16 -55 29 -27 13 -61 31 -75 40 -14 9 -27 17 -30 17 -6 1 -102 54 -238 132
-52 29 -96 53 -99 53 -3 0 -17 8 -31 19 -15 10 -44 28 -64 40 -88 49 -164 94
-264 156 -18 11 -75 46 -126 77 -105 64 -343 219 -373 242 -10 9 -24 16 -31
16 -7 0 -14 7 -18 15 -3 8 -12 15 -21 15 -8 0 -15 5 -15 10 0 6 -7 10 -15 10
-8 0 -15 5 -15 10 0 6 -7 10 -15 10 -8 0 -15 5 -15 10 0 6 -7 10 -15 10 -9 0
-18 7 -21 15 -4 8 -10 15 -15 15 -7 0 -145 93 -174 117 -5 5 -32 24 -60 43
-52 35 -238 171 -266 194 -8 7 -42 32 -75 56 -50 37 -250 192 -302 235 -9 8
-35 29 -58 47 -22 18 -57 47 -78 63 -22 17 -44 35 -50 40 -6 6 -36 30 -66 55
-30 25 -60 49 -66 55 -6 5 -33 29 -60 52 -27 23 -60 51 -74 63 -14 12 -47 40
-74 63 -65 56 -143 125 -183 162 -17 17 -69 64 -114 105 -279 253 -729 704
-986 986 -105 117 -155 172 -173 194 -12 14 -41 46 -66 72 -24 26 -44 49 -44
51 0 3 -15 21 -32 40 -45 47 -132 149 -136 157 -2 4 -21 27 -42 51 -22 24 -94
112 -161 194 -66 83 -128 159 -137 170 -9 11 -54 69 -100 130 -47 60 -88 112
-91 115 -3 3 -17 21 -31 40 -13 19 -28 40 -33 45 -4 6 -39 53 -78 105 -38 52
-73 100 -77 105 -49 63 -122 167 -122 174 0 5 -3 11 -8 13 -7 3 -46 56 -157
218 -32 47 -62 87 -67 88 -4 2 -8 8 -8 13 0 5 -60 99 -132 208 -73 110 -146
221 -163 247 -16 26 -37 59 -46 73 -67 105 -118 190 -264 436 -91 154 -171
289 -177 300 -7 11 -27 47 -46 80 -19 33 -44 78 -56 100 -11 22 -24 42 -28 43
-5 2 -8 10 -8 18 0 8 -6 14 -12 15 -63 5 -1061 2 -1064 -3z"/>
<path d="M5618 9612 c-15 -3 51 -121 170 -306 14 -23 27 -43 27 -46 2 -12 299
-465 307 -468 5 -2 8 -10 8 -18 0 -8 5 -14 10 -14 6 0 10 -6 10 -14 0 -8 4
-16 8 -18 4 -1 41 -52 82 -113 40 -60 77 -111 82 -113 4 -2 8 -8 8 -13 0 -6 5
-15 10 -22 12 -13 76 -102 100 -137 15 -22 63 -86 78 -105 5 -6 17 -24 28 -40
10 -17 21 -32 24 -35 3 -3 33 -41 65 -85 33 -44 62 -82 65 -85 3 -3 25 -32 50
-65 25 -33 47 -62 50 -65 3 -3 27 -33 53 -67 26 -34 53 -68 60 -75 6 -7 24
-29 39 -50 15 -20 33 -42 40 -50 8 -7 53 -62 102 -121 49 -60 98 -119 110
-132 11 -13 36 -41 54 -64 18 -22 45 -53 60 -69 15 -16 45 -50 67 -76 22 -26
51 -60 65 -75 14 -15 68 -74 120 -131 52 -57 113 -123 135 -147 22 -24 153
-157 291 -296 252 -254 396 -391 608 -581 92 -81 103 -91 160 -140 27 -22 55
-47 63 -55 18 -17 258 -217 307 -256 22 -16 44 -34 50 -40 6 -5 32 -26 56 -45
63 -48 61 -47 100 -80 19 -16 43 -32 53 -36 9 -3 17 -9 17 -14 0 -5 15 -18 33
-29 17 -11 45 -32 61 -46 16 -14 32 -25 36 -25 3 0 15 -8 26 -18 10 -10 60
-47 109 -82 50 -36 92 -67 95 -71 10 -11 433 -299 538 -366 59 -37 109 -70
112 -73 6 -6 23 -17 100 -62 30 -17 57 -34 60 -38 5 -5 183 -113 225 -135 21
-12 52 -30 100 -61 17 -10 32 -19 35 -19 3 0 37 -19 75 -41 75 -44 144 -83
214 -120 24 -13 50 -29 57 -35 8 -6 14 -8 14 -5 0 4 12 -1 28 -12 25 -17 63
-37 312 -164 47 -24 88 -47 92 -53 4 -5 8 -7 8 -2 0 4 15 0 33 -10 17 -9 35
-16 40 -15 4 1 7 -2 7 -6 0 -4 17 -14 38 -21 20 -8 39 -17 42 -20 3 -4 41 -23
85 -43 79 -36 164 -74 260 -119 28 -13 52 -23 55 -24 3 0 10 -3 15 -6 6 -4 66
-30 135 -59 69 -29 143 -60 165 -70 22 -9 83 -34 135 -55 52 -20 109 -43 125
-50 95 -40 343 -128 365 -129 23 -1 102 23 190 59 19 7 67 26 105 40 109 42
316 125 362 146 23 10 44 19 47 19 3 0 31 12 63 26 32 14 67 29 78 34 11 5 50
22 88 39 37 17 69 31 71 31 4 0 124 55 261 120 241 114 300 143 303 151 2 5 9
9 15 9 10 0 183 85 282 140 28 15 82 44 120 65 84 45 169 92 210 116 17 10 51
29 76 42 25 14 87 50 139 81 51 31 96 56 101 56 5 0 9 5 9 10 0 6 5 10 10 10
6 0 71 38 146 85 74 47 140 85 145 85 5 0 9 5 9 10 0 6 11 15 25 20 28 11 88
51 93 63 2 4 8 7 13 7 9 0 334 216 356 237 7 6 29 21 50 34 21 13 40 26 43 29
3 3 45 34 94 69 49 35 94 67 100 72 6 5 54 41 106 79 52 38 102 75 110 83 8 8
31 25 50 38 19 13 39 29 45 35 5 6 30 26 55 45 25 18 47 36 50 39 3 3 28 23
55 44 28 22 55 45 60 51 6 6 17 16 26 21 17 9 72 53 138 111 20 17 86 73 146
125 61 51 115 97 121 103 6 5 45 41 86 78 196 175 363 334 562 533 155 155
378 386 458 475 13 14 55 61 95 105 40 44 82 91 93 105 12 13 43 49 69 79 81
92 134 154 176 205 22 27 54 65 71 85 23 27 186 231 328 410 7 9 32 42 56 75
25 33 51 66 57 75 17 21 115 153 133 180 8 12 22 30 30 40 8 10 22 28 30 40 8
12 22 32 31 44 54 71 329 473 329 480 0 3 7 14 16 23 9 10 36 50 60 88 24 39
48 77 54 85 44 65 100 154 100 161 0 5 5 9 10 9 6 0 10 4 10 9 0 5 51 92 114
195 63 102 112 187 108 189 -11 5 -891 2 -895 -3 -3 -3 -36 -57 -75 -120 -39
-63 -75 -119 -79 -125 -5 -5 -20 -28 -33 -50 -13 -22 -28 -41 -32 -43 -4 -2
-8 -10 -8 -18 0 -8 -4 -14 -10 -14 -5 0 -10 -5 -10 -11 0 -9 -83 -135 -238
-359 -25 -36 -49 -66 -54 -68 -4 -2 -8 -8 -8 -13 0 -5 -35 -56 -77 -114 -43
-59 -85 -116 -93 -128 -28 -42 -260 -344 -284 -370 -13 -14 -22 -28 -19 -31 3
-2 -4 -11 -16 -18 -12 -7 -21 -17 -21 -21 0 -7 -58 -80 -105 -133 -5 -6 -23
-28 -40 -49 -16 -21 -34 -43 -40 -49 -5 -6 -46 -54 -90 -106 -44 -52 -82 -97
-85 -100 -3 -3 -34 -39 -70 -80 -36 -41 -74 -84 -85 -96 -11 -11 -56 -61 -100
-109 -201 -222 -561 -582 -826 -827 -38 -34 -53 -48 -184 -163 -44 -38 -86
-75 -93 -82 -7 -7 -34 -29 -59 -50 -26 -21 -54 -45 -63 -53 -8 -9 -49 -42 -90
-75 -41 -33 -77 -62 -80 -65 -6 -7 -111 -92 -125 -102 -5 -4 -26 -20 -45 -36
-78 -64 -434 -326 -580 -426 -85 -59 -163 -113 -173 -121 -9 -8 -20 -15 -23
-15 -4 0 -124 -78 -149 -98 -16 -12 -347 -217 -385 -238 -19 -10 -37 -21 -40
-24 -3 -3 -72 -44 -155 -90 -82 -47 -157 -89 -166 -95 -9 -5 -39 -22 -65 -36
-27 -14 -83 -44 -124 -66 -41 -22 -109 -57 -150 -78 -41 -21 -81 -43 -89 -49
-7 -6 -20 -11 -28 -12 -8 -1 -26 -10 -41 -20 -15 -10 -32 -17 -39 -16 -6 1
-14 -2 -17 -7 -6 -9 -30 -22 -216 -109 -47 -21 -112 -52 -145 -68 -33 -15 -62
-29 -65 -29 -8 -3 -52 -21 -110 -48 -30 -14 -84 -37 -120 -52 -82 -34 -112
-47 -175 -73 -134 -57 -409 -162 -442 -168 -11 -2 -42 5 -67 16 -26 11 -50 19
-54 20 -11 0 -213 80 -242 95 -14 7 -27 12 -30 12 -3 -1 -24 6 -45 15 -22 9
-103 44 -180 76 -210 90 -298 129 -425 190 -63 30 -117 56 -120 56 -11 3 -369
182 -422 212 -31 18 -59 30 -62 26 -3 -3 -6 0 -6 6 0 7 -4 12 -9 12 -16 0
-356 190 -541 303 -41 25 -102 62 -135 82 -71 42 -57 33 -264 167 -91 58 -170
110 -176 115 -14 11 -182 126 -203 138 -9 6 -19 13 -22 17 -3 3 -30 23 -60 43
-58 40 -402 295 -410 305 -3 3 -36 29 -74 59 -85 66 -76 58 -231 188 -71 59
-138 115 -149 123 -10 8 -30 26 -45 40 -16 14 -52 45 -81 70 -29 25 -65 56
-80 70 -15 14 -49 45 -76 69 -171 151 -512 485 -719 703 -145 152 -369 401
-470 522 -28 33 -67 78 -87 100 -21 23 -38 44 -38 48 0 4 -10 18 -22 31 -13
13 -32 34 -43 48 -11 13 -38 47 -60 74 -22 28 -45 57 -52 65 -54 67 -164 208
-251 325 -57 77 -113 151 -123 165 -10 14 -41 57 -69 95 -28 39 -66 92 -85
118 -19 26 -35 52 -35 56 0 4 -9 16 -20 26 -11 10 -20 24 -20 31 0 7 -4 14 -9
16 -4 2 -75 105 -157 229 -82 124 -155 234 -162 245 -7 10 -15 27 -18 37 -4 9
-10 17 -14 17 -5 0 -12 10 -16 23 -4 12 -10 24 -14 27 -3 3 -18 25 -33 50
l-26 44 -434 1 c-238 0 -440 -1 -449 -3z"/>
</g>
</svg>
