<svg id="Group_2" data-name="Group 2" xmlns="http://www.w3.org/2000/svg" width="40" height="40" viewBox="0 0 40 40">
  <circle id="Oval" cx="20" cy="20" r="20" fill="#a30000"/>
  <g id="guarantee-award" transform="translate(7 7)">
    <path id="Shape" d="M13,26a4.072,4.072,0,0,1-1.234-.19,5.361,5.361,0,0,1-1.607-1.033,7.7,7.7,0,0,0-1.787-1.193,1.862,1.862,0,0,0-.734-.123c-.174,0-.354.012-.528.024H7.093c-.171.012-.364.025-.556.025a2.7,2.7,0,0,1-.839-.116,4.161,4.161,0,0,1-2.525-2.18,4.6,4.6,0,0,1-.446-2.2,4.268,4.268,0,0,0-.283-1.742,2.969,2.969,0,0,0-.823-.9l0,0A5.113,5.113,0,0,1,.436,15.08c-.817-1.459-.508-2.86,1.1-5A5.085,5.085,0,0,0,2.726,6.991L2.732,6.9a5.036,5.036,0,0,1,.84-2.8C4.365,2.908,5.605,2.86,6.8,2.814a4.3,4.3,0,0,0,1.96-.359,9.949,9.949,0,0,0,1.5-1.133l.014-.012a8.575,8.575,0,0,1,.937-.738A3.054,3.054,0,0,1,12.908,0L13,0c.04,0,.083,0,.132,0A2.986,2.986,0,0,1,14.79.572a9.268,9.268,0,0,1,.909.72l.016.014a10.152,10.152,0,0,0,1.53,1.15,4.324,4.324,0,0,0,1.946.354c1.2.046,2.449.093,3.245,1.292a5.062,5.062,0,0,1,.84,2.8l.006.089a5.067,5.067,0,0,0,1.186,3.091c1.6,2.139,1.909,3.541,1.1,5a5.08,5.08,0,0,1-1.2,1.309,2.965,2.965,0,0,0-.812.882,4.263,4.263,0,0,0-.282,1.737,4.612,4.612,0,0,1-.446,2.207,4.21,4.21,0,0,1-2.525,2.18,2.6,2.6,0,0,1-.814.113c-.2,0-.4-.014-.57-.027H18.9c-.189-.014-.36-.025-.531-.025a1.821,1.821,0,0,0-.742.129,7.8,7.8,0,0,0-1.793,1.193,5.5,5.5,0,0,1-1.6,1.033A4.061,4.061,0,0,1,13,26ZM13,5.215A7.782,7.782,0,1,0,20.722,13,7.758,7.758,0,0,0,13,5.215ZM12.4,16.8c-.135,0-.277-.145-.562-.434l-.113-.114L8.87,13.387a.34.34,0,0,1,.035-.521l1.316-1.374a.381.381,0,0,1,.269-.15.463.463,0,0,1,.294.15l-.023.013,1.668,1.6,2.866-2.937.055-.056,0,0c.155-.158.277-.283.427-.283a.489.489,0,0,1,.325.178l1.139,1.173a.7.7,0,0,1,.273.47.691.691,0,0,1-.273.466l-4.159,4.121c-.078.077-.147.148-.207.21C12.642,16.68,12.523,16.8,12.4,16.8Z" fill="#e7e7e7"/>
  </g>
</svg>
