<svg id="Group_4" data-name="Group 4" xmlns="http://www.w3.org/2000/svg" width="40" height="40" viewBox="0 0 40 40">
  <circle id="Oval" cx="20" cy="20" r="20" fill="#a30000"/>
  <g id="thumbs-up-solid" transform="translate(9.6 9.6)">
    <path id="Shape" d="M14.632,21.6h-.12A12.115,12.115,0,0,1,9.47,20.263a6.53,6.53,0,0,0-2.224-.684.508.508,0,0,1-.5-.506V10.055a.51.51,0,0,1,.15-.36,16.929,16.929,0,0,0,2.088-2.63A14.645,14.645,0,0,1,10.66,4.923,5.1,5.1,0,0,0,11.73,2.439l0-.02C11.924,1.634,12.318,0,13.163,0,14.3,0,16.2.446,16.2,3.436a5.468,5.468,0,0,1-.834,2.692,6.043,6.043,0,0,0-.57,1.3h4.291A2.524,2.524,0,0,1,21.6,9.876a3.055,3.055,0,0,1-.82,2.075l0,.005a3.5,3.5,0,0,1-.393,3.352,3.333,3.333,0,0,1-.691,3.154,2.239,2.239,0,0,1-.259,1.883C18.559,21.6,16.382,21.6,14.632,21.6Zm-10.245,0H1.013A1.014,1.014,0,0,1,0,20.587V10.463A1.014,1.014,0,0,1,1.013,9.45H4.388A1.014,1.014,0,0,1,5.4,10.463V20.587A1.014,1.014,0,0,1,4.388,21.6ZM2.7,17.888A1.012,1.012,0,1,0,3.713,18.9,1.014,1.014,0,0,0,2.7,17.888Z" fill="#e7e7e7"/>
  </g>
</svg>
